<svg xmlns="http://www.w3.org/2000/svg" xmlns:xlink="http://www.w3.org/1999/xlink" zoomAndPan="magnify" preserveAspectRatio="xMidYMid meet" version="1.0" viewBox="73.27 169.32 200.73 48.21"><defs><g/><clipPath id="470568e9a1"><path d="M 73.269531 208.011719 L 183.640625 208.011719 L 183.640625 217.53125 L 73.269531 217.53125 Z M 73.269531 208.011719 " clip-rule="nonzero"/></clipPath><clipPath id="adada585b1"><path d="M 77.945312 208.011719 L 183.636719 208.011719 L 178.960938 217.53125 L 73.269531 217.53125 Z M 77.945312 208.011719 " clip-rule="nonzero"/></clipPath></defs><g fill="#023a62" fill-opacity="1"><g transform="translate(99.444545, 201.692886)"><g><path d="M 10.578125 0 L 10.578125 -26.921875 L 0.953125 -26.921875 L 0.953125 -32.375 L 26.6875 -32.375 L 26.6875 -26.921875 L 17.09375 -26.921875 L 17.09375 0 Z M 10.578125 0 "/></g></g></g><g fill="#023a62" fill-opacity="1"><g transform="translate(127.075501, 201.692886)"><g><path d="M 32.46875 0 L 25.375 0 L 22.578125 -7.375 L 9.578125 -7.375 L 6.90625 0 L 0 0 L 12.609375 -32.375 L 19.546875 -32.375 Z M 20.453125 -12.8125 L 16.015625 -24.828125 L 11.625 -12.8125 Z M 20.453125 -12.8125 "/></g></g></g><g fill="#023a62" fill-opacity="1"><g transform="translate(159.742316, 201.692886)"><g><path d="M 3.359375 0 L 3.359375 -32.375 L 9.71875 -32.375 L 22.96875 -10.75 L 22.96875 -32.375 L 29.046875 -32.375 L 29.046875 0 L 22.484375 0 L 9.40625 -21.109375 L 9.40625 0 Z M 3.359375 0 "/></g></g></g><g fill="#023a62" fill-opacity="1"><g transform="translate(192.409131, 201.692886)"><g><path d="M 11.53125 0 L 0 -32.375 L 7.046875 -32.375 L 15.234375 -8.421875 L 23.21875 -32.375 L 30.125 -32.375 L 18.546875 0 Z M 11.53125 0 "/></g></g></g><g fill="#023a62" fill-opacity="1"><g transform="translate(222.580103, 201.692886)"><g><path d="M 3.0625 0 L 3.0625 -32.375 L 9.625 -32.375 L 9.625 0 Z M 3.0625 0 "/></g></g></g><g fill="#023a62" fill-opacity="1"><g transform="translate(235.147661, 201.692886)"><g><path d="M 3.3125 0 L 3.3125 -32.375 L 17.046875 -32.375 C 20.523438 -32.375 23.046875 -32.078125 24.609375 -31.484375 C 26.179688 -30.898438 27.441406 -29.867188 28.390625 -28.390625 C 29.335938 -26.921875 29.8125 -25.222656 29.8125 -23.296875 C 29.8125 -20.878906 29.09375 -18.878906 27.65625 -17.296875 C 26.226562 -15.722656 24.097656 -14.722656 21.265625 -14.296875 C 22.679688 -13.484375 23.847656 -12.578125 24.765625 -11.578125 C 25.691406 -10.585938 26.921875 -8.84375 28.453125 -6.34375 L 32.421875 0 L 24.609375 0 L 19.859375 -7.046875 C 18.191406 -9.546875 17.046875 -11.128906 16.421875 -11.796875 C 15.804688 -12.472656 15.148438 -12.925781 14.453125 -13.15625 C 13.765625 -13.394531 12.671875 -13.515625 11.171875 -13.515625 L 9.84375 -13.515625 L 9.84375 0 Z M 9.84375 -18.6875 L 14.703125 -18.6875 C 17.847656 -18.6875 19.800781 -18.820312 20.5625 -19.09375 C 21.332031 -19.363281 21.941406 -19.820312 22.390625 -20.46875 C 22.835938 -21.125 23.0625 -21.925781 23.0625 -22.875 C 23.0625 -23.96875 22.769531 -24.84375 22.1875 -25.5 C 21.601562 -26.164062 20.78125 -26.585938 19.71875 -26.765625 C 19.175781 -26.867188 17.59375 -26.921875 14.96875 -26.921875 L 9.84375 -26.921875 Z M 9.84375 -18.6875 "/></g></g></g><g clip-path="url(#470568e9a1)"><g clip-path="url(#adada585b1)"><path fill="#023a62" d="M 73.269531 208.011719 L 183.640625 208.011719 L 183.640625 217.53125 L 73.269531 217.53125 Z M 73.269531 208.011719 " fill-opacity="1" fill-rule="nonzero"/></g></g><g fill="#023a62" fill-opacity="1"><g transform="translate(190.201017, 215.574997)"><g><path d="M 4.4375 -6 L 4.4375 -5.421875 L 1.609375 -5.421875 L 1.609375 -3.234375 L 4.15625 -3.234375 L 4.15625 -2.640625 L 1.609375 -2.640625 L 1.609375 0 L 0.90625 0 L 0.90625 -6 Z M 4.4375 -6 "/></g></g></g><g fill="#023a62" fill-opacity="1"><g transform="translate(196.266865, 215.574997)"><g><path d="M 0.90625 0 L 0.90625 -6 L 3.09375 -6 C 3.488281 -6 3.820312 -5.929688 4.09375 -5.796875 C 4.375 -5.671875 4.582031 -5.484375 4.71875 -5.234375 C 4.851562 -4.992188 4.921875 -4.707031 4.921875 -4.375 C 4.921875 -4.007812 4.828125 -3.703125 4.640625 -3.453125 C 4.453125 -3.210938 4.160156 -3.035156 3.765625 -2.921875 L 3.765625 -2.828125 C 3.960938 -2.753906 4.125 -2.632812 4.25 -2.46875 C 4.375 -2.300781 4.488281 -2.054688 4.59375 -1.734375 L 5.140625 0 L 4.421875 0 L 3.8125 -1.828125 C 3.738281 -2.046875 3.65625 -2.21875 3.5625 -2.34375 C 3.476562 -2.46875 3.363281 -2.554688 3.21875 -2.609375 C 3.070312 -2.660156 2.890625 -2.6875 2.671875 -2.6875 L 1.609375 -2.6875 L 1.609375 0 Z M 3.0625 -3.296875 C 3.4375 -3.296875 3.71875 -3.378906 3.90625 -3.546875 C 4.09375 -3.722656 4.1875 -3.988281 4.1875 -4.34375 C 4.1875 -4.695312 4.09375 -4.960938 3.90625 -5.140625 C 3.71875 -5.316406 3.4375 -5.40625 3.0625 -5.40625 L 1.609375 -5.40625 L 1.609375 -3.296875 Z M 3.0625 -3.296875 "/></g></g></g><g fill="#023a62" fill-opacity="1"><g transform="translate(203.132747, 215.574997)"><g><path d="M 3.296875 0.09375 C 2.773438 0.09375 2.3125 -0.0195312 1.90625 -0.25 C 1.5 -0.476562 1.175781 -0.820312 0.9375 -1.28125 C 0.707031 -1.738281 0.59375 -2.3125 0.59375 -3 C 0.59375 -3.6875 0.707031 -4.257812 0.9375 -4.71875 C 1.175781 -5.175781 1.5 -5.519531 1.90625 -5.75 C 2.3125 -5.976562 2.773438 -6.09375 3.296875 -6.09375 C 3.816406 -6.09375 4.273438 -5.976562 4.671875 -5.75 C 5.078125 -5.519531 5.394531 -5.175781 5.625 -4.71875 C 5.863281 -4.257812 5.984375 -3.6875 5.984375 -3 C 5.984375 -2.3125 5.863281 -1.738281 5.625 -1.28125 C 5.394531 -0.820312 5.078125 -0.476562 4.671875 -0.25 C 4.273438 -0.0195312 3.816406 0.09375 3.296875 0.09375 Z M 3.296875 -0.5625 C 3.921875 -0.5625 4.398438 -0.753906 4.734375 -1.140625 C 5.066406 -1.535156 5.234375 -2.15625 5.234375 -3 C 5.234375 -3.84375 5.066406 -4.457031 4.734375 -4.84375 C 4.398438 -5.238281 3.921875 -5.4375 3.296875 -5.4375 C 2.003906 -5.4375 1.359375 -4.625 1.359375 -3 C 1.359375 -1.375 2.003906 -0.5625 3.296875 -0.5625 Z M 3.296875 -0.5625 "/></g></g></g><g fill="#023a62" fill-opacity="1"><g transform="translate(211.024314, 215.574997)"><g><path d="M 1.59375 0 L 0.90625 0 L 0.90625 -6 L 1.765625 -6 L 4.703125 -1.421875 L 4.796875 -1.4375 L 4.796875 -6 L 5.484375 -6 L 5.484375 0 L 4.75 0 L 1.703125 -4.90625 L 1.59375 -4.890625 Z M 1.59375 0 "/></g></g></g><g fill="#023a62" fill-opacity="1"><g transform="translate(218.731258, 215.574997)"><g><path d="M 4.6875 -6 L 4.6875 -5.40625 L 2.796875 -5.40625 L 2.796875 0 L 2.109375 0 L 2.109375 -5.40625 L 0.21875 -5.40625 L 0.21875 -6 Z M 4.6875 -6 "/></g></g></g><g fill="#023a62" fill-opacity="1"><g transform="translate(224.940703, 215.574997)"><g><path d="M 2.765625 -2.609375 L 0.421875 -2.609375 L 0.421875 -3.21875 L 2.765625 -3.21875 Z M 2.765625 -2.609375 "/></g></g></g><g fill="#023a62" fill-opacity="1"><g transform="translate(229.435204, 215.574997)"><g><path d="M 1.609375 -2.828125 L 1.609375 -0.578125 L 4.671875 -0.578125 L 4.671875 0 L 0.90625 0 L 0.90625 -6 L 4.609375 -6 L 4.609375 -5.421875 L 1.609375 -5.421875 L 1.609375 -3.40625 L 4.25 -3.40625 L 4.25 -2.828125 Z M 1.609375 -2.828125 "/></g></g></g><g fill="#023a62" fill-opacity="1"><g transform="translate(235.812862, 215.574997)"><g><path d="M 1.59375 0 L 0.90625 0 L 0.90625 -6 L 1.765625 -6 L 4.703125 -1.421875 L 4.796875 -1.4375 L 4.796875 -6 L 5.484375 -6 L 5.484375 0 L 4.75 0 L 1.703125 -4.90625 L 1.59375 -4.890625 Z M 1.59375 0 "/></g></g></g><g fill="#023a62" fill-opacity="1"><g transform="translate(243.519807, 215.574997)"><g><path d="M 2.84375 -6 C 3.457031 -6 3.976562 -5.890625 4.40625 -5.671875 C 4.84375 -5.453125 5.179688 -5.117188 5.421875 -4.671875 C 5.660156 -4.234375 5.78125 -3.675781 5.78125 -3 C 5.78125 -2.320312 5.660156 -1.757812 5.421875 -1.3125 C 5.179688 -0.875 4.84375 -0.546875 4.40625 -0.328125 C 3.976562 -0.109375 3.457031 0 2.84375 0 L 0.90625 0 L 0.90625 -6 Z M 2.78125 -0.59375 C 3.28125 -0.59375 3.691406 -0.671875 4.015625 -0.828125 C 4.347656 -0.984375 4.597656 -1.238281 4.765625 -1.59375 C 4.941406 -1.945312 5.03125 -2.414062 5.03125 -3 C 5.03125 -3.582031 4.941406 -4.050781 4.765625 -4.40625 C 4.597656 -4.757812 4.347656 -5.015625 4.015625 -5.171875 C 3.691406 -5.328125 3.28125 -5.40625 2.78125 -5.40625 L 1.609375 -5.40625 L 1.609375 -0.59375 Z M 2.78125 -0.59375 "/></g></g></g><g fill="#023a62" fill-opacity="1"><g transform="translate(251.206238, 215.574997)"><g/></g></g><g fill="#023a62" fill-opacity="1"><g transform="translate(254.576589, 215.574997)"><g><path d="M 2.84375 -6 C 3.457031 -6 3.976562 -5.890625 4.40625 -5.671875 C 4.84375 -5.453125 5.179688 -5.117188 5.421875 -4.671875 C 5.660156 -4.234375 5.78125 -3.675781 5.78125 -3 C 5.78125 -2.320312 5.660156 -1.757812 5.421875 -1.3125 C 5.179688 -0.875 4.84375 -0.546875 4.40625 -0.328125 C 3.976562 -0.109375 3.457031 0 2.84375 0 L 0.90625 0 L 0.90625 -6 Z M 2.78125 -0.59375 C 3.28125 -0.59375 3.691406 -0.671875 4.015625 -0.828125 C 4.347656 -0.984375 4.597656 -1.238281 4.765625 -1.59375 C 4.941406 -1.945312 5.03125 -2.414062 5.03125 -3 C 5.03125 -3.582031 4.941406 -4.050781 4.765625 -4.40625 C 4.597656 -4.757812 4.347656 -5.015625 4.015625 -5.171875 C 3.691406 -5.328125 3.28125 -5.40625 2.78125 -5.40625 L 1.609375 -5.40625 L 1.609375 -0.59375 Z M 2.78125 -0.59375 "/></g></g></g><g fill="#023a62" fill-opacity="1"><g transform="translate(262.26302, 215.574997)"><g><path d="M 1.609375 -2.828125 L 1.609375 -0.578125 L 4.671875 -0.578125 L 4.671875 0 L 0.90625 0 L 0.90625 -6 L 4.609375 -6 L 4.609375 -5.421875 L 1.609375 -5.421875 L 1.609375 -3.40625 L 4.25 -3.40625 L 4.25 -2.828125 Z M 1.609375 -2.828125 "/></g></g></g><g fill="#023a62" fill-opacity="1"><g transform="translate(268.640678, 215.574997)"><g><path d="M 3.265625 0 L 2.34375 0 L 0.265625 -6 L 1.015625 -6 L 2.765625 -0.875 L 2.875 -0.875 L 4.609375 -6 L 5.359375 -6 Z M 3.265625 0 "/></g></g></g></svg>