<svg xmlns="http://www.w3.org/2000/svg" version="1.1" xmlns:xlink="http://www.w3.org/1999/xlink" xmlns:svgjs="http://svgjs.dev/svgjs" width="1440" height="560" preserveAspectRatio="none" viewBox="0 0 1440 560"><g mask="url(&quot;#SvgjsMask1000&quot;)" fill="none"><rect width="1440" height="560" x="0" y="0" fill="#0e2a47"></rect><path d="M0.19 -62.06L65.14 -24.56L65.14 50.44L0.19 87.94L-64.76 50.44L-64.76 -24.56zM65.14 50.44L130.1 87.94L130.1 162.94L65.14 200.44L0.19 162.94L0.19 87.94zM0.19 162.94L65.14 200.44L65.14 275.44L0.19 312.94L-64.76 275.44L-64.76 200.44zM0.19 387.94L65.14 425.44L65.14 500.44L0.19 537.94L-64.76 500.44L-64.76 425.44zM195.05 275.44L260 312.94L260 387.94L195.05 425.44L130.1 387.94L130.1 312.94zM130.1 387.94L195.05 425.44L195.05 500.44L130.1 537.94L65.14 500.44L65.14 425.44zM324.96 275.44L389.91 312.94L389.91 387.94L324.96 425.44L260 387.94L260 312.94zM260 387.94L324.96 425.44L324.96 500.44L260 537.94L195.05 500.44L195.05 425.44zM454.87 500.44L519.82 537.94L519.82 612.94L454.87 650.44L389.91 612.94L389.91 537.94zM519.82 162.94L584.77 200.44L584.77 275.44L519.82 312.94L454.87 275.44L454.87 200.44zM584.77 275.44L649.73 312.94L649.73 387.94L584.77 425.44L519.82 387.94L519.82 312.94zM584.77 500.44L649.73 537.94L649.73 612.94L584.77 650.44L519.82 612.94L519.82 537.94zM779.63 -62.06L844.59 -24.56L844.59 50.44L779.63 87.94L714.68 50.44L714.68 -24.56zM779.63 387.94L844.59 425.44L844.59 500.44L779.63 537.94L714.68 500.44L714.68 425.44zM974.5 50.44L1039.45 87.94L1039.45 162.94L974.5 200.44L909.54 162.94L909.54 87.94zM909.54 387.94L974.5 425.44L974.5 500.44L909.54 537.94L844.59 500.44L844.59 425.44zM974.5 500.44L1039.45 537.94L1039.45 612.94L974.5 650.44L909.54 612.94L909.54 537.94zM1104.4 50.44L1169.36 87.94L1169.36 162.94L1104.4 200.44L1039.45 162.94L1039.45 87.94zM1039.45 162.94L1104.4 200.44L1104.4 275.44L1039.45 312.94L974.5 275.44L974.5 200.44zM1039.45 387.94L1104.4 425.44L1104.4 500.44L1039.45 537.94L974.5 500.44L974.5 425.44zM1169.36 -62.06L1234.31 -24.56L1234.31 50.44L1169.36 87.94L1104.4 50.44L1104.4 -24.56zM1234.31 50.44L1299.26 87.94L1299.26 162.94L1234.31 200.44L1169.36 162.94L1169.36 87.94zM1299.27 387.94L1364.22 425.44L1364.22 500.44L1299.27 537.94L1234.31 500.44L1234.31 425.44zM1494.13 50.44L1559.08 87.94L1559.08 162.94L1494.13 200.44L1429.17 162.94L1429.17 87.94zM1429.17 387.94L1494.13 425.44L1494.13 500.44L1429.17 537.94L1364.22 500.44L1364.22 425.44zM1494.13 500.44L1559.08 537.94L1559.08 612.94L1494.13 650.44L1429.17 612.94L1429.17 537.94z" stroke="#03305d" stroke-width="2"></path><path d="M-7.31 -62.06 a7.5 7.5 0 1 0 15 0 a7.5 7.5 0 1 0 -15 0zM57.64 -24.56 a7.5 7.5 0 1 0 15 0 a7.5 7.5 0 1 0 -15 0zM57.64 50.44 a7.5 7.5 0 1 0 15 0 a7.5 7.5 0 1 0 -15 0zM-7.31 87.94 a7.5 7.5 0 1 0 15 0 a7.5 7.5 0 1 0 -15 0zM-72.26 50.44 a7.5 7.5 0 1 0 15 0 a7.5 7.5 0 1 0 -15 0zM-72.26 -24.56 a7.5 7.5 0 1 0 15 0 a7.5 7.5 0 1 0 -15 0zM122.6 87.94 a7.5 7.5 0 1 0 15 0 a7.5 7.5 0 1 0 -15 0zM122.6 162.94 a7.5 7.5 0 1 0 15 0 a7.5 7.5 0 1 0 -15 0zM57.64 200.44 a7.5 7.5 0 1 0 15 0 a7.5 7.5 0 1 0 -15 0zM-7.31 162.94 a7.5 7.5 0 1 0 15 0 a7.5 7.5 0 1 0 -15 0zM57.64 275.44 a7.5 7.5 0 1 0 15 0 a7.5 7.5 0 1 0 -15 0zM-7.31 312.94 a7.5 7.5 0 1 0 15 0 a7.5 7.5 0 1 0 -15 0zM-72.26 275.44 a7.5 7.5 0 1 0 15 0 a7.5 7.5 0 1 0 -15 0zM-72.26 200.44 a7.5 7.5 0 1 0 15 0 a7.5 7.5 0 1 0 -15 0zM-7.31 387.94 a7.5 7.5 0 1 0 15 0 a7.5 7.5 0 1 0 -15 0zM57.64 425.44 a7.5 7.5 0 1 0 15 0 a7.5 7.5 0 1 0 -15 0zM57.64 500.44 a7.5 7.5 0 1 0 15 0 a7.5 7.5 0 1 0 -15 0zM-7.31 537.94 a7.5 7.5 0 1 0 15 0 a7.5 7.5 0 1 0 -15 0zM-72.26 500.44 a7.5 7.5 0 1 0 15 0 a7.5 7.5 0 1 0 -15 0zM-72.26 425.44 a7.5 7.5 0 1 0 15 0 a7.5 7.5 0 1 0 -15 0zM187.55 275.44 a7.5 7.5 0 1 0 15 0 a7.5 7.5 0 1 0 -15 0zM252.5 312.94 a7.5 7.5 0 1 0 15 0 a7.5 7.5 0 1 0 -15 0zM252.5 387.94 a7.5 7.5 0 1 0 15 0 a7.5 7.5 0 1 0 -15 0zM187.55 425.44 a7.5 7.5 0 1 0 15 0 a7.5 7.5 0 1 0 -15 0zM122.6 387.94 a7.5 7.5 0 1 0 15 0 a7.5 7.5 0 1 0 -15 0zM122.6 312.94 a7.5 7.5 0 1 0 15 0 a7.5 7.5 0 1 0 -15 0zM187.55 500.44 a7.5 7.5 0 1 0 15 0 a7.5 7.5 0 1 0 -15 0zM122.6 537.94 a7.5 7.5 0 1 0 15 0 a7.5 7.5 0 1 0 -15 0zM317.46 275.44 a7.5 7.5 0 1 0 15 0 a7.5 7.5 0 1 0 -15 0zM382.41 312.94 a7.5 7.5 0 1 0 15 0 a7.5 7.5 0 1 0 -15 0zM382.41 387.94 a7.5 7.5 0 1 0 15 0 a7.5 7.5 0 1 0 -15 0zM317.46 425.44 a7.5 7.5 0 1 0 15 0 a7.5 7.5 0 1 0 -15 0zM317.46 500.44 a7.5 7.5 0 1 0 15 0 a7.5 7.5 0 1 0 -15 0zM252.5 537.94 a7.5 7.5 0 1 0 15 0 a7.5 7.5 0 1 0 -15 0zM447.37 500.44 a7.5 7.5 0 1 0 15 0 a7.5 7.5 0 1 0 -15 0zM512.32 537.94 a7.5 7.5 0 1 0 15 0 a7.5 7.5 0 1 0 -15 0zM512.32 612.94 a7.5 7.5 0 1 0 15 0 a7.5 7.5 0 1 0 -15 0zM447.37 650.44 a7.5 7.5 0 1 0 15 0 a7.5 7.5 0 1 0 -15 0zM382.41 612.94 a7.5 7.5 0 1 0 15 0 a7.5 7.5 0 1 0 -15 0zM382.41 537.94 a7.5 7.5 0 1 0 15 0 a7.5 7.5 0 1 0 -15 0zM512.32 162.94 a7.5 7.5 0 1 0 15 0 a7.5 7.5 0 1 0 -15 0zM577.27 200.44 a7.5 7.5 0 1 0 15 0 a7.5 7.5 0 1 0 -15 0zM577.27 275.44 a7.5 7.5 0 1 0 15 0 a7.5 7.5 0 1 0 -15 0zM512.32 312.94 a7.5 7.5 0 1 0 15 0 a7.5 7.5 0 1 0 -15 0zM447.37 275.44 a7.5 7.5 0 1 0 15 0 a7.5 7.5 0 1 0 -15 0zM447.37 200.44 a7.5 7.5 0 1 0 15 0 a7.5 7.5 0 1 0 -15 0zM642.23 312.94 a7.5 7.5 0 1 0 15 0 a7.5 7.5 0 1 0 -15 0zM642.23 387.94 a7.5 7.5 0 1 0 15 0 a7.5 7.5 0 1 0 -15 0zM577.27 425.44 a7.5 7.5 0 1 0 15 0 a7.5 7.5 0 1 0 -15 0zM512.32 387.94 a7.5 7.5 0 1 0 15 0 a7.5 7.5 0 1 0 -15 0zM577.27 500.44 a7.5 7.5 0 1 0 15 0 a7.5 7.5 0 1 0 -15 0zM642.23 537.94 a7.5 7.5 0 1 0 15 0 a7.5 7.5 0 1 0 -15 0zM642.23 612.94 a7.5 7.5 0 1 0 15 0 a7.5 7.5 0 1 0 -15 0zM577.27 650.44 a7.5 7.5 0 1 0 15 0 a7.5 7.5 0 1 0 -15 0zM772.13 -62.06 a7.5 7.5 0 1 0 15 0 a7.5 7.5 0 1 0 -15 0zM837.09 -24.56 a7.5 7.5 0 1 0 15 0 a7.5 7.5 0 1 0 -15 0zM837.09 50.44 a7.5 7.5 0 1 0 15 0 a7.5 7.5 0 1 0 -15 0zM772.13 87.94 a7.5 7.5 0 1 0 15 0 a7.5 7.5 0 1 0 -15 0zM707.18 50.44 a7.5 7.5 0 1 0 15 0 a7.5 7.5 0 1 0 -15 0zM707.18 -24.56 a7.5 7.5 0 1 0 15 0 a7.5 7.5 0 1 0 -15 0zM772.13 387.94 a7.5 7.5 0 1 0 15 0 a7.5 7.5 0 1 0 -15 0zM837.09 425.44 a7.5 7.5 0 1 0 15 0 a7.5 7.5 0 1 0 -15 0zM837.09 500.44 a7.5 7.5 0 1 0 15 0 a7.5 7.5 0 1 0 -15 0zM772.13 537.94 a7.5 7.5 0 1 0 15 0 a7.5 7.5 0 1 0 -15 0zM707.18 500.44 a7.5 7.5 0 1 0 15 0 a7.5 7.5 0 1 0 -15 0zM707.18 425.44 a7.5 7.5 0 1 0 15 0 a7.5 7.5 0 1 0 -15 0zM967 50.44 a7.5 7.5 0 1 0 15 0 a7.5 7.5 0 1 0 -15 0zM1031.95 87.94 a7.5 7.5 0 1 0 15 0 a7.5 7.5 0 1 0 -15 0zM1031.95 162.94 a7.5 7.5 0 1 0 15 0 a7.5 7.5 0 1 0 -15 0zM967 200.44 a7.5 7.5 0 1 0 15 0 a7.5 7.5 0 1 0 -15 0zM902.04 162.94 a7.5 7.5 0 1 0 15 0 a7.5 7.5 0 1 0 -15 0zM902.04 87.94 a7.5 7.5 0 1 0 15 0 a7.5 7.5 0 1 0 -15 0zM902.04 387.94 a7.5 7.5 0 1 0 15 0 a7.5 7.5 0 1 0 -15 0zM967 425.44 a7.5 7.5 0 1 0 15 0 a7.5 7.5 0 1 0 -15 0zM967 500.44 a7.5 7.5 0 1 0 15 0 a7.5 7.5 0 1 0 -15 0zM902.04 537.94 a7.5 7.5 0 1 0 15 0 a7.5 7.5 0 1 0 -15 0zM1031.95 537.94 a7.5 7.5 0 1 0 15 0 a7.5 7.5 0 1 0 -15 0zM1031.95 612.94 a7.5 7.5 0 1 0 15 0 a7.5 7.5 0 1 0 -15 0zM967 650.44 a7.5 7.5 0 1 0 15 0 a7.5 7.5 0 1 0 -15 0zM902.04 612.94 a7.5 7.5 0 1 0 15 0 a7.5 7.5 0 1 0 -15 0zM1096.9 50.44 a7.5 7.5 0 1 0 15 0 a7.5 7.5 0 1 0 -15 0zM1161.86 87.94 a7.5 7.5 0 1 0 15 0 a7.5 7.5 0 1 0 -15 0zM1161.86 162.94 a7.5 7.5 0 1 0 15 0 a7.5 7.5 0 1 0 -15 0zM1096.9 200.44 a7.5 7.5 0 1 0 15 0 a7.5 7.5 0 1 0 -15 0zM1096.9 275.44 a7.5 7.5 0 1 0 15 0 a7.5 7.5 0 1 0 -15 0zM1031.95 312.94 a7.5 7.5 0 1 0 15 0 a7.5 7.5 0 1 0 -15 0zM967 275.44 a7.5 7.5 0 1 0 15 0 a7.5 7.5 0 1 0 -15 0zM1031.95 387.94 a7.5 7.5 0 1 0 15 0 a7.5 7.5 0 1 0 -15 0zM1096.9 425.44 a7.5 7.5 0 1 0 15 0 a7.5 7.5 0 1 0 -15 0zM1096.9 500.44 a7.5 7.5 0 1 0 15 0 a7.5 7.5 0 1 0 -15 0zM1161.86 -62.06 a7.5 7.5 0 1 0 15 0 a7.5 7.5 0 1 0 -15 0zM1226.81 -24.56 a7.5 7.5 0 1 0 15 0 a7.5 7.5 0 1 0 -15 0zM1226.81 50.44 a7.5 7.5 0 1 0 15 0 a7.5 7.5 0 1 0 -15 0zM1096.9 -24.56 a7.5 7.5 0 1 0 15 0 a7.5 7.5 0 1 0 -15 0zM1291.76 87.94 a7.5 7.5 0 1 0 15 0 a7.5 7.5 0 1 0 -15 0zM1291.76 162.94 a7.5 7.5 0 1 0 15 0 a7.5 7.5 0 1 0 -15 0zM1226.81 200.44 a7.5 7.5 0 1 0 15 0 a7.5 7.5 0 1 0 -15 0zM1291.77 387.94 a7.5 7.5 0 1 0 15 0 a7.5 7.5 0 1 0 -15 0zM1356.72 425.44 a7.5 7.5 0 1 0 15 0 a7.5 7.5 0 1 0 -15 0zM1356.72 500.44 a7.5 7.5 0 1 0 15 0 a7.5 7.5 0 1 0 -15 0zM1291.77 537.94 a7.5 7.5 0 1 0 15 0 a7.5 7.5 0 1 0 -15 0zM1226.81 500.44 a7.5 7.5 0 1 0 15 0 a7.5 7.5 0 1 0 -15 0zM1226.81 425.44 a7.5 7.5 0 1 0 15 0 a7.5 7.5 0 1 0 -15 0zM1486.63 50.44 a7.5 7.5 0 1 0 15 0 a7.5 7.5 0 1 0 -15 0zM1551.58 87.94 a7.5 7.5 0 1 0 15 0 a7.5 7.5 0 1 0 -15 0zM1551.58 162.94 a7.5 7.5 0 1 0 15 0 a7.5 7.5 0 1 0 -15 0zM1486.63 200.44 a7.5 7.5 0 1 0 15 0 a7.5 7.5 0 1 0 -15 0zM1421.67 162.94 a7.5 7.5 0 1 0 15 0 a7.5 7.5 0 1 0 -15 0zM1421.67 87.94 a7.5 7.5 0 1 0 15 0 a7.5 7.5 0 1 0 -15 0zM1421.67 387.94 a7.5 7.5 0 1 0 15 0 a7.5 7.5 0 1 0 -15 0zM1486.63 425.44 a7.5 7.5 0 1 0 15 0 a7.5 7.5 0 1 0 -15 0zM1486.63 500.44 a7.5 7.5 0 1 0 15 0 a7.5 7.5 0 1 0 -15 0zM1421.67 537.94 a7.5 7.5 0 1 0 15 0 a7.5 7.5 0 1 0 -15 0zM1551.58 537.94 a7.5 7.5 0 1 0 15 0 a7.5 7.5 0 1 0 -15 0zM1551.58 612.94 a7.5 7.5 0 1 0 15 0 a7.5 7.5 0 1 0 -15 0zM1486.63 650.44 a7.5 7.5 0 1 0 15 0 a7.5 7.5 0 1 0 -15 0zM1421.67 612.94 a7.5 7.5 0 1 0 15 0 a7.5 7.5 0 1 0 -15 0z" fill="#03305d"></path><path d="M17.7 -1.69L61 23.31L61 73.31L17.7 98.31L-25.6 73.31L-25.6 23.31zM61 73.31L104.31 98.31L104.31 148.31L61 173.31L17.7 148.31L17.7 98.31zM17.7 148.31L61 173.31L61 223.31L17.7 248.31L-25.6 223.31L-25.6 173.31zM61 223.31L104.31 248.31L104.31 298.31L61 323.31L17.7 298.31L17.7 248.31zM17.7 298.31L61 323.31L61 373.31L17.7 398.31L-25.6 373.31L-25.6 323.31zM61 373.31L104.31 398.31L104.31 448.31L61 473.31L17.7 448.31L17.7 398.31zM17.7 448.31L61 473.31L61 523.31L17.7 548.31L-25.6 523.31L-25.6 473.31zM147.61 73.31L190.91 98.31L190.91 148.31L147.61 173.31L104.31 148.31L104.31 98.31zM147.61 223.31L190.91 248.31L190.91 298.31L147.61 323.31L104.31 298.31L104.31 248.31zM234.21 73.31L277.51 98.31L277.51 148.31L234.21 173.31L190.91 148.31L190.91 98.31zM190.91 448.31L234.21 473.31L234.21 523.31L190.91 548.31L147.61 523.31L147.61 473.31zM234.21 523.31L277.51 548.31L277.51 598.31L234.21 623.31L190.91 598.31L190.91 548.31zM320.82 73.31L364.12 98.31L364.12 148.31L320.82 173.31L277.51 148.31L277.51 98.31zM320.82 223.31L364.12 248.31L364.12 298.31L320.82 323.31L277.51 298.31L277.51 248.31zM320.82 373.31L364.12 398.31L364.12 448.31L320.82 473.31L277.51 448.31L277.51 398.31zM277.51 448.31L320.82 473.31L320.82 523.31L277.51 548.31L234.21 523.31L234.21 473.31zM320.82 523.31L364.12 548.31L364.12 598.31L320.82 623.31L277.51 598.31L277.51 548.31zM364.12 298.31L407.42 323.31L407.42 373.31L364.12 398.31L320.82 373.31L320.82 323.31zM450.73 -1.69L494.03 23.31L494.03 73.31L450.73 98.31L407.42 73.31L407.42 23.31zM494.03 73.31L537.33 98.31L537.33 148.31L494.03 173.31L450.73 148.31L450.73 98.31zM450.73 148.31L494.03 173.31L494.03 223.31L450.73 248.31L407.42 223.31L407.42 173.31zM450.73 448.31L494.03 473.31L494.03 523.31L450.73 548.31L407.42 523.31L407.42 473.31zM537.33 148.31L580.63 173.31L580.63 223.31L537.33 248.31L494.03 223.31L494.03 173.31zM537.33 298.31L580.63 323.31L580.63 373.31L537.33 398.31L494.03 373.31L494.03 323.31zM580.63 373.31L623.94 398.31L623.94 448.31L580.63 473.31L537.33 448.31L537.33 398.31zM580.63 523.31L623.94 548.31L623.94 598.31L580.63 623.31L537.33 598.31L537.33 548.31zM623.94 -1.69L667.24 23.31L667.24 73.31L623.94 98.31L580.63 73.31L580.63 23.31zM667.24 373.31L710.54 398.31L710.54 448.31L667.24 473.31L623.94 448.31L623.94 398.31zM710.54 -1.69L753.84 23.31L753.84 73.31L710.54 98.31L667.24 73.31L667.24 23.31zM753.84 73.31L797.15 98.31L797.15 148.31L753.84 173.31L710.54 148.31L710.54 98.31zM753.84 223.31L797.15 248.31L797.15 298.31L753.84 323.31L710.54 298.31L710.54 248.31zM753.84 373.31L797.15 398.31L797.15 448.31L753.84 473.31L710.54 448.31L710.54 398.31zM710.54 448.31L753.84 473.31L753.84 523.31L710.54 548.31L667.24 523.31L667.24 473.31zM753.84 523.31L797.15 548.31L797.15 598.31L753.84 623.31L710.54 598.31L710.54 548.31zM797.15 -1.69L840.45 23.31L840.45 73.31L797.15 98.31L753.84 73.31L753.84 23.31zM797.15 298.31L840.45 323.31L840.45 373.31L797.15 398.31L753.84 373.31L753.84 323.31zM883.75 298.31L927.05 323.31L927.05 373.31L883.75 398.31L840.45 373.31L840.45 323.31zM927.05 373.31L970.36 398.31L970.36 448.31L927.05 473.31L883.75 448.31L883.75 398.31zM883.75 448.31L927.05 473.31L927.05 523.31L883.75 548.31L840.45 523.31L840.45 473.31zM927.05 523.31L970.36 548.31L970.36 598.31L927.05 623.31L883.75 598.31L883.75 548.31zM1013.66 523.31L1056.96 548.31L1056.96 598.31L1013.66 623.31L970.36 598.31L970.36 548.31zM1100.26 73.31L1143.57 98.31L1143.57 148.31L1100.26 173.31L1056.96 148.31L1056.96 98.31zM1100.26 223.31L1143.57 248.31L1143.57 298.31L1100.26 323.31L1056.96 298.31L1056.96 248.31zM1056.96 298.31L1100.26 323.31L1100.26 373.31L1056.96 398.31L1013.66 373.31L1013.66 323.31zM1100.26 523.31L1143.57 548.31L1143.57 598.31L1100.26 623.31L1056.96 598.31L1056.96 548.31zM1186.87 73.31L1230.17 98.31L1230.17 148.31L1186.87 173.31L1143.57 148.31L1143.57 98.31zM1143.57 448.31L1186.87 473.31L1186.87 523.31L1143.57 548.31L1100.26 523.31L1100.26 473.31zM1186.87 523.31L1230.17 548.31L1230.17 598.31L1186.87 623.31L1143.57 598.31L1143.57 548.31zM1230.17 -1.69L1273.47 23.31L1273.47 73.31L1230.17 98.31L1186.87 73.31L1186.87 23.31zM1230.17 148.31L1273.47 173.31L1273.47 223.31L1230.17 248.31L1186.87 223.31L1186.87 173.31zM1273.47 523.31L1316.78 548.31L1316.78 598.31L1273.47 623.31L1230.17 598.31L1230.17 548.31zM1316.78 448.31L1360.08 473.31L1360.08 523.31L1316.78 548.31L1273.47 523.31L1273.47 473.31zM1360.08 523.31L1403.38 548.31L1403.38 598.31L1360.08 623.31L1316.78 598.31L1316.78 548.31zM1446.68 73.31L1489.99 98.31L1489.99 148.31L1446.68 173.31L1403.38 148.31L1403.38 98.31zM1403.38 148.31L1446.68 173.31L1446.68 223.31L1403.38 248.31L1360.08 223.31L1360.08 173.31zM1446.68 373.31L1489.99 398.31L1489.99 448.31L1446.68 473.31L1403.38 448.31L1403.38 398.31zM1403.38 448.31L1446.68 473.31L1446.68 523.31L1403.38 548.31L1360.08 523.31L1360.08 473.31z" stroke="rgba(6, 80, 156, 0.93)" stroke-width="2"></path></g><defs><mask id="SvgjsMask1000"><rect width="1440" height="560" fill="#ffffff"></rect></mask></defs></svg>