<svg xmlns="http://www.w3.org/2000/svg" version="1.1" xmlns:xlink="http://www.w3.org/1999/xlink" xmlns:svgjs="http://svgjs.dev/svgjs" width="1440" height="560" preserveAspectRatio="none" viewBox="0 0 1440 560"><g mask="url(&quot;#SvgjsMask1914&quot;)" fill="none"><rect width="1440" height="560" x="0" y="0" fill="url(&quot;#SvgjsLinearGradient1915&quot;)"></rect><path d="M49.13 340.06L49.13 340.06" stroke="#132e65" stroke-width="1.5"></path><path d="M49.13 340.06L195.99 380.62" stroke="#132e65" stroke-width="1.5"></path><path d="M49.13 340.06L91.96 534.75" stroke="#132e65" stroke-width="1.5"></path><path d="M49.13 340.06L258.39 498.76" stroke="#132e65" stroke-width="1.5"></path><path d="M49.13 340.06L349.51 383.22" stroke="#132e65" stroke-width="1.5"></path><path d="M91.96 534.75L91.96 534.75" stroke="#132e65" stroke-width="1.5"></path><path d="M91.96 534.75L50.69 650.99" stroke="#132e65" stroke-width="1.5"></path><path d="M91.96 534.75L258.39 498.76" stroke="#132e65" stroke-width="1.5"></path><path d="M91.96 534.75L197 685.82" stroke="#132e65" stroke-width="1.5"></path><path d="M50.69 650.99L50.69 650.99" stroke="#132e65" stroke-width="1.5"></path><path d="M50.69 650.99L197 685.82" stroke="#132e65" stroke-width="1.5"></path><path d="M50.69 650.99L258.39 498.76" stroke="#132e65" stroke-width="1.5"></path><path d="M50.69 650.99L195.99 380.62" stroke="#132e65" stroke-width="1.5"></path><path d="M195.99 380.62L195.99 380.62" stroke="#132e65" stroke-width="1.5"></path><path d="M195.99 380.62L258.39 498.76" stroke="#132e65" stroke-width="1.5"></path><path d="M195.99 380.62L349.51 383.22" stroke="#132e65" stroke-width="1.5"></path><path d="M195.99 380.62L91.96 534.75" stroke="#132e65" stroke-width="1.5"></path><path d="M258.39 498.76L258.39 498.76" stroke="#132e65" stroke-width="1.5"></path><path d="M258.39 498.76L380.98 556.06" stroke="#132e65" stroke-width="1.5"></path><path d="M258.39 498.76L349.51 383.22" stroke="#132e65" stroke-width="1.5"></path><path d="M258.39 498.76L197 685.82" stroke="#132e65" stroke-width="1.5"></path><path d="M258.39 498.76L390.89 646.62" stroke="#132e65" stroke-width="1.5"></path><path d="M197 685.82L197 685.82" stroke="#132e65" stroke-width="1.5"></path><path d="M197 685.82L390.89 646.62" stroke="#132e65" stroke-width="1.5"></path><path d="M197 685.82L380.98 556.06" stroke="#132e65" stroke-width="1.5"></path><path d="M197 685.82L195.99 380.62" stroke="#132e65" stroke-width="1.5"></path><path d="M349.51 383.22L349.51 383.22" stroke="#132e65" stroke-width="1.5"></path><path d="M380.98 556.06L380.98 556.06" stroke="#132e65" stroke-width="1.5"></path><path d="M380.98 556.06L390.89 646.62" stroke="#132e65" stroke-width="1.5"></path><path d="M380.98 556.06L554.65 536.68" stroke="#132e65" stroke-width="1.5"></path><path d="M380.98 556.06L349.51 383.22" stroke="#132e65" stroke-width="1.5"></path><path d="M380.98 556.06L510.28 373.41" stroke="#132e65" stroke-width="1.5"></path><path d="M390.89 646.62L390.89 646.62" stroke="#132e65" stroke-width="1.5"></path><path d="M390.89 646.62L554.65 536.68" stroke="#132e65" stroke-width="1.5"></path><path d="M510.28 373.41L510.28 373.41" stroke="#132e65" stroke-width="1.5"></path><path d="M510.28 373.41L349.51 383.22" stroke="#132e65" stroke-width="1.5"></path><path d="M510.28 373.41L554.65 536.68" stroke="#132e65" stroke-width="1.5"></path><path d="M510.28 373.41L678.68 342.31" stroke="#132e65" stroke-width="1.5"></path><path d="M510.28 373.41L668.91 230.66" stroke="#132e65" stroke-width="1.5"></path><path d="M554.65 536.68L554.65 536.68" stroke="#132e65" stroke-width="1.5"></path><path d="M554.65 536.68L681.68 663.95" stroke="#132e65" stroke-width="1.5"></path><path d="M668.91 230.66L668.91 230.66" stroke="#132e65" stroke-width="1.5"></path><path d="M668.91 230.66L678.68 342.31" stroke="#132e65" stroke-width="1.5"></path><path d="M668.91 230.66L804.33 249.17" stroke="#132e65" stroke-width="1.5"></path><path d="M668.91 230.66L797.62 410.95" stroke="#132e65" stroke-width="1.5"></path><path d="M668.91 230.66L852.77 74.52" stroke="#132e65" stroke-width="1.5"></path><path d="M678.68 342.31L678.68 342.31" stroke="#132e65" stroke-width="1.5"></path><path d="M678.68 342.31L797.62 410.95" stroke="#132e65" stroke-width="1.5"></path><path d="M678.68 342.31L804.33 249.17" stroke="#132e65" stroke-width="1.5"></path><path d="M681.68 663.95L681.68 663.95" stroke="#132e65" stroke-width="1.5"></path><path d="M681.68 663.95L817.31 644.04" stroke="#132e65" stroke-width="1.5"></path><path d="M681.68 663.95L850.24 532.92" stroke="#132e65" stroke-width="1.5"></path><path d="M681.68 663.95L947.98 669.98" stroke="#132e65" stroke-width="1.5"></path><path d="M681.68 663.95L797.62 410.95" stroke="#132e65" stroke-width="1.5"></path><path d="M681.68 663.95L390.89 646.62" stroke="#132e65" stroke-width="1.5"></path><path d="M852.77 74.52L852.77 74.52" stroke="#132e65" stroke-width="1.5"></path><path d="M852.77 74.52L987.42 52.3" stroke="#132e65" stroke-width="1.5"></path><path d="M852.77 74.52L945.61 -42.25" stroke="#132e65" stroke-width="1.5"></path><path d="M804.33 249.17L804.33 249.17" stroke="#132e65" stroke-width="1.5"></path><path d="M804.33 249.17L797.62 410.95" stroke="#132e65" stroke-width="1.5"></path><path d="M804.33 249.17L852.77 74.52" stroke="#132e65" stroke-width="1.5"></path><path d="M804.33 249.17L995.61 240.28" stroke="#132e65" stroke-width="1.5"></path><path d="M797.62 410.95L797.62 410.95" stroke="#132e65" stroke-width="1.5"></path><path d="M797.62 410.95L850.24 532.92" stroke="#132e65" stroke-width="1.5"></path><path d="M797.62 410.95L962.58 558.31" stroke="#132e65" stroke-width="1.5"></path><path d="M797.62 410.95L817.31 644.04" stroke="#132e65" stroke-width="1.5"></path><path d="M850.24 532.92L850.24 532.92" stroke="#132e65" stroke-width="1.5"></path><path d="M850.24 532.92L962.58 558.31" stroke="#132e65" stroke-width="1.5"></path><path d="M850.24 532.92L817.31 644.04" stroke="#132e65" stroke-width="1.5"></path><path d="M850.24 532.92L947.98 669.98" stroke="#132e65" stroke-width="1.5"></path><path d="M850.24 532.92L678.68 342.31" stroke="#132e65" stroke-width="1.5"></path><path d="M817.31 644.04L817.31 644.04" stroke="#132e65" stroke-width="1.5"></path><path d="M817.31 644.04L947.98 669.98" stroke="#132e65" stroke-width="1.5"></path><path d="M817.31 644.04L962.58 558.31" stroke="#132e65" stroke-width="1.5"></path><path d="M817.31 644.04L554.65 536.68" stroke="#132e65" stroke-width="1.5"></path><path d="M945.61 -42.25L945.61 -42.25" stroke="#132e65" stroke-width="1.5"></path><path d="M945.61 -42.25L987.42 52.3" stroke="#132e65" stroke-width="1.5"></path><path d="M987.42 52.3L987.42 52.3" stroke="#132e65" stroke-width="1.5"></path><path d="M987.42 52.3L1111.98 67.83" stroke="#132e65" stroke-width="1.5"></path><path d="M995.61 240.28L995.61 240.28" stroke="#132e65" stroke-width="1.5"></path><path d="M995.61 240.28L1138.42 188.96" stroke="#132e65" stroke-width="1.5"></path><path d="M995.61 240.28L987.42 52.3" stroke="#132e65" stroke-width="1.5"></path><path d="M995.61 240.28L1137.49 381.14" stroke="#132e65" stroke-width="1.5"></path><path d="M962.58 558.31L962.58 558.31" stroke="#132e65" stroke-width="1.5"></path><path d="M962.58 558.31L947.98 669.98" stroke="#132e65" stroke-width="1.5"></path><path d="M962.58 558.31L1140.34 510.23" stroke="#132e65" stroke-width="1.5"></path><path d="M947.98 669.98L947.98 669.98" stroke="#132e65" stroke-width="1.5"></path><path d="M1120.08 -93.87L1120.08 -93.87" stroke="#132e65" stroke-width="1.5"></path><path d="M1120.08 -93.87L1260.68 -75.52" stroke="#132e65" stroke-width="1.5"></path><path d="M1120.08 -93.87L1111.98 67.83" stroke="#132e65" stroke-width="1.5"></path><path d="M1120.08 -93.87L945.61 -42.25" stroke="#132e65" stroke-width="1.5"></path><path d="M1120.08 -93.87L987.42 52.3" stroke="#132e65" stroke-width="1.5"></path><path d="M1120.08 -93.87L1287.77 55.62" stroke="#132e65" stroke-width="1.5"></path><path d="M1111.98 67.83L1111.98 67.83" stroke="#132e65" stroke-width="1.5"></path><path d="M1111.98 67.83L1138.42 188.96" stroke="#132e65" stroke-width="1.5"></path><path d="M1111.98 67.83L1287.77 55.62" stroke="#132e65" stroke-width="1.5"></path><path d="M1138.42 188.96L1138.42 188.96" stroke="#132e65" stroke-width="1.5"></path><path d="M1137.49 381.14L1137.49 381.14" stroke="#132e65" stroke-width="1.5"></path><path d="M1137.49 381.14L1140.34 510.23" stroke="#132e65" stroke-width="1.5"></path><path d="M1137.49 381.14L1311.03 369.31" stroke="#132e65" stroke-width="1.5"></path><path d="M1137.49 381.14L1138.42 188.96" stroke="#132e65" stroke-width="1.5"></path><path d="M1137.49 381.14L962.58 558.31" stroke="#132e65" stroke-width="1.5"></path><path d="M1137.49 381.14L1156.55 669.35" stroke="#132e65" stroke-width="1.5"></path><path d="M1140.34 510.23L1140.34 510.23" stroke="#132e65" stroke-width="1.5"></path><path d="M1140.34 510.23L1156.55 669.35" stroke="#132e65" stroke-width="1.5"></path><path d="M1156.55 669.35L1156.55 669.35" stroke="#132e65" stroke-width="1.5"></path><path d="M1156.55 669.35L1284.51 637.67" stroke="#132e65" stroke-width="1.5"></path><path d="M1156.55 669.35L947.98 669.98" stroke="#132e65" stroke-width="1.5"></path><path d="M1156.55 669.35L962.58 558.31" stroke="#132e65" stroke-width="1.5"></path><path d="M1156.55 669.35L1417.72 660.36" stroke="#132e65" stroke-width="1.5"></path><path d="M1260.68 -75.52L1260.68 -75.52" stroke="#132e65" stroke-width="1.5"></path><path d="M1260.68 -75.52L1287.77 55.62" stroke="#132e65" stroke-width="1.5"></path><path d="M1260.68 -75.52L1399.85 -53.85" stroke="#132e65" stroke-width="1.5"></path><path d="M1260.68 -75.52L1111.98 67.83" stroke="#132e65" stroke-width="1.5"></path><path d="M1260.68 -75.52L1444.76 45.05" stroke="#132e65" stroke-width="1.5"></path><path d="M1287.77 55.62L1287.77 55.62" stroke="#132e65" stroke-width="1.5"></path><path d="M1287.77 55.62L1399.85 -53.85" stroke="#132e65" stroke-width="1.5"></path><path d="M1287.77 55.62L1444.76 45.05" stroke="#132e65" stroke-width="1.5"></path><path d="M1287.77 55.62L1138.42 188.96" stroke="#132e65" stroke-width="1.5"></path><path d="M1311.03 369.31L1311.03 369.31" stroke="#132e65" stroke-width="1.5"></path><path d="M1311.03 369.31L1453.1 382.03" stroke="#132e65" stroke-width="1.5"></path><path d="M1311.03 369.31L1446.25 210.36" stroke="#132e65" stroke-width="1.5"></path><path d="M1311.03 369.31L1458.05 524.17" stroke="#132e65" stroke-width="1.5"></path><path d="M1311.03 369.31L1140.34 510.23" stroke="#132e65" stroke-width="1.5"></path><path d="M1311.03 369.31L1138.42 188.96" stroke="#132e65" stroke-width="1.5"></path><path d="M1284.51 637.67L1284.51 637.67" stroke="#132e65" stroke-width="1.5"></path><path d="M1284.51 637.67L1417.72 660.36" stroke="#132e65" stroke-width="1.5"></path><path d="M1284.51 637.67L1140.34 510.23" stroke="#132e65" stroke-width="1.5"></path><path d="M1284.51 637.67L1458.05 524.17" stroke="#132e65" stroke-width="1.5"></path><path d="M1284.51 637.67L1311.03 369.31" stroke="#132e65" stroke-width="1.5"></path><path d="M1284.51 637.67L1550.94 516.61" stroke="#132e65" stroke-width="1.5"></path><path d="M1399.85 -53.85L1399.85 -53.85" stroke="#132e65" stroke-width="1.5"></path><path d="M1399.85 -53.85L1444.76 45.05" stroke="#132e65" stroke-width="1.5"></path><path d="M1399.85 -53.85L1578.43 -72.14" stroke="#132e65" stroke-width="1.5"></path><path d="M1444.76 45.05L1444.76 45.05" stroke="#132e65" stroke-width="1.5"></path><path d="M1444.76 45.05L1594.94 83.66" stroke="#132e65" stroke-width="1.5"></path><path d="M1446.25 210.36L1446.25 210.36" stroke="#132e65" stroke-width="1.5"></path><path d="M1446.25 210.36L1577.12 241.7" stroke="#132e65" stroke-width="1.5"></path><path d="M1446.25 210.36L1444.76 45.05" stroke="#132e65" stroke-width="1.5"></path><path d="M1453.1 382.03L1453.1 382.03" stroke="#132e65" stroke-width="1.5"></path><path d="M1453.1 382.03L1566.33 350.86" stroke="#132e65" stroke-width="1.5"></path><path d="M1453.1 382.03L1458.05 524.17" stroke="#132e65" stroke-width="1.5"></path><path d="M1453.1 382.03L1550.94 516.61" stroke="#132e65" stroke-width="1.5"></path><path d="M1453.1 382.03L1446.25 210.36" stroke="#132e65" stroke-width="1.5"></path><path d="M1458.05 524.17L1458.05 524.17" stroke="#132e65" stroke-width="1.5"></path><path d="M1458.05 524.17L1550.94 516.61" stroke="#132e65" stroke-width="1.5"></path><path d="M1458.05 524.17L1417.72 660.36" stroke="#132e65" stroke-width="1.5"></path><path d="M1458.05 524.17L1608.56 639.77" stroke="#132e65" stroke-width="1.5"></path><path d="M1458.05 524.17L1566.33 350.86" stroke="#132e65" stroke-width="1.5"></path><path d="M1417.72 660.36L1417.72 660.36" stroke="#132e65" stroke-width="1.5"></path><path d="M1578.43 -72.14L1578.43 -72.14" stroke="#132e65" stroke-width="1.5"></path><path d="M1578.43 -72.14L1594.94 83.66" stroke="#132e65" stroke-width="1.5"></path><path d="M1578.43 -72.14L1444.76 45.05" stroke="#132e65" stroke-width="1.5"></path><path d="M1578.43 -72.14L1446.25 210.36" stroke="#132e65" stroke-width="1.5"></path><path d="M1594.94 83.66L1594.94 83.66" stroke="#132e65" stroke-width="1.5"></path><path d="M1594.94 83.66L1577.12 241.7" stroke="#132e65" stroke-width="1.5"></path><path d="M1594.94 83.66L1446.25 210.36" stroke="#132e65" stroke-width="1.5"></path><path d="M1594.94 83.66L1399.85 -53.85" stroke="#132e65" stroke-width="1.5"></path><path d="M1577.12 241.7L1577.12 241.7" stroke="#132e65" stroke-width="1.5"></path><path d="M1577.12 241.7L1566.33 350.86" stroke="#132e65" stroke-width="1.5"></path><path d="M1577.12 241.7L1453.1 382.03" stroke="#132e65" stroke-width="1.5"></path><path d="M1577.12 241.7L1444.76 45.05" stroke="#132e65" stroke-width="1.5"></path><path d="M1566.33 350.86L1566.33 350.86" stroke="#132e65" stroke-width="1.5"></path><path d="M1566.33 350.86L1550.94 516.61" stroke="#132e65" stroke-width="1.5"></path><path d="M1550.94 516.61L1550.94 516.61" stroke="#132e65" stroke-width="1.5"></path><path d="M1608.56 639.77L1608.56 639.77" stroke="#132e65" stroke-width="1.5"></path><path d="M1608.56 639.77L1550.94 516.61" stroke="#132e65" stroke-width="1.5"></path><path d="M1608.56 639.77L1417.72 660.36" stroke="#132e65" stroke-width="1.5"></path><path d="M1608.56 639.77L1566.33 350.86" stroke="#132e65" stroke-width="1.5"></path><path d="M1608.56 639.77L1453.1 382.03" stroke="#132e65" stroke-width="1.5"></path><circle r="5" cx="49.13" cy="340.06" fill="#132e65"></circle><circle r="5" cx="91.96" cy="534.75" fill="#132e65"></circle><circle r="5" cx="50.69" cy="650.99" fill="#132e65"></circle><circle r="5" cx="195.99" cy="380.62" fill="#132e65"></circle><circle r="5" cx="258.39" cy="498.76" fill="#132e65"></circle><circle r="5" cx="197" cy="685.82" fill="#132e65"></circle><circle r="5" cx="349.51" cy="383.22" fill="#132e65"></circle><circle r="5" cx="380.98" cy="556.06" fill="#132e65"></circle><circle r="5" cx="390.89" cy="646.62" fill="#132e65"></circle><circle r="5" cx="510.28" cy="373.41" fill="#132e65"></circle><circle r="5" cx="554.65" cy="536.68" fill="#132e65"></circle><circle r="5" cx="668.91" cy="230.66" fill="#132e65"></circle><circle r="5" cx="678.68" cy="342.31" fill="#132e65"></circle><circle r="5" cx="681.68" cy="663.95" fill="#132e65"></circle><circle r="5" cx="852.77" cy="74.52" fill="#132e65"></circle><circle r="5" cx="804.33" cy="249.17" fill="#132e65"></circle><circle r="5" cx="797.62" cy="410.95" fill="#132e65"></circle><circle r="5" cx="850.24" cy="532.92" fill="#132e65"></circle><circle r="5" cx="817.31" cy="644.04" fill="#132e65"></circle><circle r="5" cx="945.61" cy="-42.25" fill="#132e65"></circle><circle r="5" cx="987.42" cy="52.3" fill="#132e65"></circle><circle r="5" cx="995.61" cy="240.28" fill="#132e65"></circle><circle r="5" cx="962.58" cy="558.31" fill="#132e65"></circle><circle r="5" cx="947.98" cy="669.98" fill="#132e65"></circle><circle r="5" cx="1120.08" cy="-93.87" fill="#132e65"></circle><circle r="5" cx="1111.98" cy="67.83" fill="#132e65"></circle><circle r="5" cx="1138.42" cy="188.96" fill="#132e65"></circle><circle r="5" cx="1137.49" cy="381.14" fill="#132e65"></circle><circle r="5" cx="1140.34" cy="510.23" fill="#132e65"></circle><circle r="5" cx="1156.55" cy="669.35" fill="#132e65"></circle><circle r="5" cx="1260.68" cy="-75.52" fill="#132e65"></circle><circle r="5" cx="1287.77" cy="55.62" fill="#132e65"></circle><circle r="5" cx="1311.03" cy="369.31" fill="#132e65"></circle><circle r="5" cx="1284.51" cy="637.67" fill="#132e65"></circle><circle r="5" cx="1399.85" cy="-53.85" fill="#132e65"></circle><circle r="5" cx="1444.76" cy="45.05" fill="#132e65"></circle><circle r="5" cx="1446.25" cy="210.36" fill="#132e65"></circle><circle r="5" cx="1453.1" cy="382.03" fill="#132e65"></circle><circle r="5" cx="1458.05" cy="524.17" fill="#132e65"></circle><circle r="5" cx="1417.72" cy="660.36" fill="#132e65"></circle><circle r="5" cx="1578.43" cy="-72.14" fill="#132e65"></circle><circle r="5" cx="1594.94" cy="83.66" fill="#132e65"></circle><circle r="5" cx="1577.12" cy="241.7" fill="#132e65"></circle><circle r="5" cx="1566.33" cy="350.86" fill="#132e65"></circle><circle r="5" cx="1550.94" cy="516.61" fill="#132e65"></circle><circle r="5" cx="1608.56" cy="639.77" fill="#132e65"></circle><path d="M100.82 667.8L100.82 667.8" stroke="hsl(228.5, 77.2%, 51.5%)" stroke-width="1.5"></path><path d="M100.82 667.8L216.4 671.7" stroke="hsl(228.5, 77.2%, 51.5%)" stroke-width="1.5"></path><path d="M100.82 667.8L106.83 549.19" stroke="hsl(228.5, 77.2%, 51.5%)" stroke-width="1.5"></path><path d="M231.61 532.19L231.61 532.19" stroke="hsl(228.5, 77.2%, 51.5%)" stroke-width="1.5"></path><path d="M231.61 532.19L354.74 531.96" stroke="hsl(228.5, 77.2%, 51.5%)" stroke-width="1.5"></path><path d="M216.4 671.7L216.4 671.7" stroke="hsl(228.5, 77.2%, 51.5%)" stroke-width="1.5"></path><path d="M216.4 671.7L231.61 532.19" stroke="hsl(228.5, 77.2%, 51.5%)" stroke-width="1.5"></path><path d="M216.4 671.7L106.83 549.19" stroke="hsl(228.5, 77.2%, 51.5%)" stroke-width="1.5"></path><path d="M216.4 671.7L380.87 688.23" stroke="hsl(228.5, 77.2%, 51.5%)" stroke-width="1.5"></path><path d="M216.4 671.7L354.74 531.96" stroke="hsl(228.5, 77.2%, 51.5%)" stroke-width="1.5"></path><path d="M216.4 671.7L-51.02 698.48" stroke="hsl(228.5, 77.2%, 51.5%)" stroke-width="1.5"></path><path d="M527.05 495.99L527.05 495.99" stroke="hsl(228.5, 77.2%, 51.5%)" stroke-width="1.5"></path><path d="M527.05 495.99L519.34 652" stroke="hsl(228.5, 77.2%, 51.5%)" stroke-width="1.5"></path><path d="M527.05 495.99L354.74 531.96" stroke="hsl(228.5, 77.2%, 51.5%)" stroke-width="1.5"></path><path d="M527.05 495.99L651.78 658.63" stroke="hsl(228.5, 77.2%, 51.5%)" stroke-width="1.5"></path><path d="M527.05 495.99L380.87 688.23" stroke="hsl(228.5, 77.2%, 51.5%)" stroke-width="1.5"></path><path d="M527.05 495.99L808.04 507.66" stroke="hsl(228.5, 77.2%, 51.5%)" stroke-width="1.5"></path><path d="M527.05 495.99L231.61 532.19" stroke="hsl(228.5, 77.2%, 51.5%)" stroke-width="1.5"></path><path d="M802.04 373.45L802.04 373.45" stroke="hsl(228.5, 77.2%, 51.5%)" stroke-width="1.5"></path><path d="M802.04 373.45L808.04 507.66" stroke="hsl(228.5, 77.2%, 51.5%)" stroke-width="1.5"></path><path d="M802.04 373.45L940.59 342.05" stroke="hsl(228.5, 77.2%, 51.5%)" stroke-width="1.5"></path><path d="M802.04 373.45L969.51 260.3" stroke="hsl(228.5, 77.2%, 51.5%)" stroke-width="1.5"></path><path d="M802.04 373.45L951.84 545.19" stroke="hsl(228.5, 77.2%, 51.5%)" stroke-width="1.5"></path><path d="M802.04 373.45L1101.65 365.77" stroke="hsl(228.5, 77.2%, 51.5%)" stroke-width="1.5"></path><path d="M802.04 373.45L527.05 495.99" stroke="hsl(228.5, 77.2%, 51.5%)" stroke-width="1.5"></path><path d="M985.46 706.94L985.46 706.94" stroke="hsl(228.5, 77.2%, 51.5%)" stroke-width="1.5"></path><path d="M985.46 706.94L842.45 676.98" stroke="hsl(228.5, 77.2%, 51.5%)" stroke-width="1.5"></path><path d="M985.46 706.94L951.84 545.19" stroke="hsl(228.5, 77.2%, 51.5%)" stroke-width="1.5"></path><path d="M1133.06 108.14L1133.06 108.14" stroke="hsl(228.5, 77.2%, 51.5%)" stroke-width="1.5"></path><path d="M1133.06 108.14L1101.81 249.04" stroke="hsl(228.5, 77.2%, 51.5%)" stroke-width="1.5"></path><path d="M1133.06 108.14L1246.25 221.78" stroke="hsl(228.5, 77.2%, 51.5%)" stroke-width="1.5"></path><path d="M1133.06 108.14L969.51 260.3" stroke="hsl(228.5, 77.2%, 51.5%)" stroke-width="1.5"></path><path d="M1133.06 108.14L1101.65 365.77" stroke="hsl(228.5, 77.2%, 51.5%)" stroke-width="1.5"></path><path d="M1133.06 108.14L1254.3 350.76" stroke="hsl(228.5, 77.2%, 51.5%)" stroke-width="1.5"></path><path d="M1133.06 108.14L1417.76 39.91" stroke="hsl(228.5, 77.2%, 51.5%)" stroke-width="1.5"></path><path d="M1128.26 505.84L1128.26 505.84" stroke="hsl(228.5, 77.2%, 51.5%)" stroke-width="1.5"></path><path d="M1128.26 505.84L1101.65 365.77" stroke="hsl(228.5, 77.2%, 51.5%)" stroke-width="1.5"></path><path d="M1128.26 505.84L951.84 545.19" stroke="hsl(228.5, 77.2%, 51.5%)" stroke-width="1.5"></path><path d="M1128.26 505.84L1309.05 505.34" stroke="hsl(228.5, 77.2%, 51.5%)" stroke-width="1.5"></path><path d="M1128.26 505.84L1254.3 350.76" stroke="hsl(228.5, 77.2%, 51.5%)" stroke-width="1.5"></path><path d="M1294.79 697.33L1294.79 697.33" stroke="hsl(228.5, 77.2%, 51.5%)" stroke-width="1.5"></path><path d="M1294.79 697.33L1309.05 505.34" stroke="hsl(228.5, 77.2%, 51.5%)" stroke-width="1.5"></path><path d="M1294.79 697.33L1128.26 505.84" stroke="hsl(228.5, 77.2%, 51.5%)" stroke-width="1.5"></path><path d="M-47.73 540.95L-47.73 540.95" stroke="hsl(228.5, 77.2%, 51.5%)" stroke-width="1.5"></path><path d="M-47.73 540.95L106.83 549.19" stroke="hsl(228.5, 77.2%, 51.5%)" stroke-width="1.5"></path><path d="M-47.73 540.95L-51.02 698.48" stroke="hsl(228.5, 77.2%, 51.5%)" stroke-width="1.5"></path><path d="M-47.73 540.95L100.82 667.8" stroke="hsl(228.5, 77.2%, 51.5%)" stroke-width="1.5"></path><path d="M-51.02 698.48L-51.02 698.48" stroke="hsl(228.5, 77.2%, 51.5%)" stroke-width="1.5"></path><path d="M-51.02 698.48L100.82 667.8" stroke="hsl(228.5, 77.2%, 51.5%)" stroke-width="1.5"></path><path d="M-51.02 698.48L106.83 549.19" stroke="hsl(228.5, 77.2%, 51.5%)" stroke-width="1.5"></path><path d="M106.83 549.19L106.83 549.19" stroke="hsl(228.5, 77.2%, 51.5%)" stroke-width="1.5"></path><path d="M106.83 549.19L231.61 532.19" stroke="hsl(228.5, 77.2%, 51.5%)" stroke-width="1.5"></path><path d="M106.83 549.19L354.74 531.96" stroke="hsl(228.5, 77.2%, 51.5%)" stroke-width="1.5"></path><path d="M354.74 531.96L354.74 531.96" stroke="hsl(228.5, 77.2%, 51.5%)" stroke-width="1.5"></path><path d="M354.74 531.96L380.87 688.23" stroke="hsl(228.5, 77.2%, 51.5%)" stroke-width="1.5"></path><path d="M354.74 531.96L519.34 652" stroke="hsl(228.5, 77.2%, 51.5%)" stroke-width="1.5"></path><path d="M380.87 688.23L380.87 688.23" stroke="hsl(228.5, 77.2%, 51.5%)" stroke-width="1.5"></path><path d="M380.87 688.23L519.34 652" stroke="hsl(228.5, 77.2%, 51.5%)" stroke-width="1.5"></path><path d="M380.87 688.23L231.61 532.19" stroke="hsl(228.5, 77.2%, 51.5%)" stroke-width="1.5"></path><path d="M519.34 652L519.34 652" stroke="hsl(228.5, 77.2%, 51.5%)" stroke-width="1.5"></path><path d="M519.34 652L651.78 658.63" stroke="hsl(228.5, 77.2%, 51.5%)" stroke-width="1.5"></path><path d="M651.78 658.63L651.78 658.63" stroke="hsl(228.5, 77.2%, 51.5%)" stroke-width="1.5"></path><path d="M651.78 658.63L842.45 676.98" stroke="hsl(228.5, 77.2%, 51.5%)" stroke-width="1.5"></path><path d="M808.04 507.66L808.04 507.66" stroke="hsl(228.5, 77.2%, 51.5%)" stroke-width="1.5"></path><path d="M808.04 507.66L951.84 545.19" stroke="hsl(228.5, 77.2%, 51.5%)" stroke-width="1.5"></path><path d="M842.45 676.98L842.45 676.98" stroke="hsl(228.5, 77.2%, 51.5%)" stroke-width="1.5"></path><path d="M842.45 676.98L951.84 545.19" stroke="hsl(228.5, 77.2%, 51.5%)" stroke-width="1.5"></path><path d="M842.45 676.98L808.04 507.66" stroke="hsl(228.5, 77.2%, 51.5%)" stroke-width="1.5"></path><path d="M969.51 260.3L969.51 260.3" stroke="hsl(228.5, 77.2%, 51.5%)" stroke-width="1.5"></path><path d="M969.51 260.3L940.59 342.05" stroke="hsl(228.5, 77.2%, 51.5%)" stroke-width="1.5"></path><path d="M969.51 260.3L1101.81 249.04" stroke="hsl(228.5, 77.2%, 51.5%)" stroke-width="1.5"></path><path d="M969.51 260.3L1101.65 365.77" stroke="hsl(228.5, 77.2%, 51.5%)" stroke-width="1.5"></path><path d="M940.59 342.05L940.59 342.05" stroke="hsl(228.5, 77.2%, 51.5%)" stroke-width="1.5"></path><path d="M951.84 545.19L951.84 545.19" stroke="hsl(228.5, 77.2%, 51.5%)" stroke-width="1.5"></path><path d="M1101.81 249.04L1101.81 249.04" stroke="hsl(228.5, 77.2%, 51.5%)" stroke-width="1.5"></path><path d="M1101.81 249.04L1101.65 365.77" stroke="hsl(228.5, 77.2%, 51.5%)" stroke-width="1.5"></path><path d="M1101.65 365.77L1101.65 365.77" stroke="hsl(228.5, 77.2%, 51.5%)" stroke-width="1.5"></path><path d="M1246.25 221.78L1246.25 221.78" stroke="hsl(228.5, 77.2%, 51.5%)" stroke-width="1.5"></path><path d="M1246.25 221.78L1254.3 350.76" stroke="hsl(228.5, 77.2%, 51.5%)" stroke-width="1.5"></path><path d="M1246.25 221.78L1101.81 249.04" stroke="hsl(228.5, 77.2%, 51.5%)" stroke-width="1.5"></path><path d="M1246.25 221.78L1430.85 212.62" stroke="hsl(228.5, 77.2%, 51.5%)" stroke-width="1.5"></path><path d="M1254.3 350.76L1254.3 350.76" stroke="hsl(228.5, 77.2%, 51.5%)" stroke-width="1.5"></path><path d="M1254.3 350.76L1101.65 365.77" stroke="hsl(228.5, 77.2%, 51.5%)" stroke-width="1.5"></path><path d="M1309.05 505.34L1309.05 505.34" stroke="hsl(228.5, 77.2%, 51.5%)" stroke-width="1.5"></path><path d="M1309.05 505.34L1406.43 392.54" stroke="hsl(228.5, 77.2%, 51.5%)" stroke-width="1.5"></path><path d="M1309.05 505.34L1254.3 350.76" stroke="hsl(228.5, 77.2%, 51.5%)" stroke-width="1.5"></path><path d="M1309.05 505.34L1101.65 365.77" stroke="hsl(228.5, 77.2%, 51.5%)" stroke-width="1.5"></path><path d="M1388.63 -84.23L1388.63 -84.23" stroke="hsl(228.5, 77.2%, 51.5%)" stroke-width="1.5"></path><path d="M1388.63 -84.23L1417.76 39.91" stroke="hsl(228.5, 77.2%, 51.5%)" stroke-width="1.5"></path><path d="M1388.63 -84.23L1559.62 -63.18" stroke="hsl(228.5, 77.2%, 51.5%)" stroke-width="1.5"></path><path d="M1417.76 39.91L1417.76 39.91" stroke="hsl(228.5, 77.2%, 51.5%)" stroke-width="1.5"></path><path d="M1417.76 39.91L1568.83 75.76" stroke="hsl(228.5, 77.2%, 51.5%)" stroke-width="1.5"></path><path d="M1417.76 39.91L1430.85 212.62" stroke="hsl(228.5, 77.2%, 51.5%)" stroke-width="1.5"></path><path d="M1417.76 39.91L1559.62 -63.18" stroke="hsl(228.5, 77.2%, 51.5%)" stroke-width="1.5"></path><path d="M1417.76 39.91L1246.25 221.78" stroke="hsl(228.5, 77.2%, 51.5%)" stroke-width="1.5"></path><path d="M1417.76 39.91L1595.76 250.2" stroke="hsl(228.5, 77.2%, 51.5%)" stroke-width="1.5"></path><path d="M1430.85 212.62L1430.85 212.62" stroke="hsl(228.5, 77.2%, 51.5%)" stroke-width="1.5"></path><path d="M1430.85 212.62L1595.76 250.2" stroke="hsl(228.5, 77.2%, 51.5%)" stroke-width="1.5"></path><path d="M1430.85 212.62L1406.43 392.54" stroke="hsl(228.5, 77.2%, 51.5%)" stroke-width="1.5"></path><path d="M1430.85 212.62L1568.83 75.76" stroke="hsl(228.5, 77.2%, 51.5%)" stroke-width="1.5"></path><path d="M1430.85 212.62L1254.3 350.76" stroke="hsl(228.5, 77.2%, 51.5%)" stroke-width="1.5"></path><path d="M1406.43 392.54L1406.43 392.54" stroke="hsl(228.5, 77.2%, 51.5%)" stroke-width="1.5"></path><path d="M1406.43 392.54L1254.3 350.76" stroke="hsl(228.5, 77.2%, 51.5%)" stroke-width="1.5"></path><path d="M1406.43 392.54L1594.33 379.13" stroke="hsl(228.5, 77.2%, 51.5%)" stroke-width="1.5"></path><path d="M1406.43 392.54L1567.01 524.76" stroke="hsl(228.5, 77.2%, 51.5%)" stroke-width="1.5"></path><path d="M1406.43 392.54L1246.25 221.78" stroke="hsl(228.5, 77.2%, 51.5%)" stroke-width="1.5"></path><path d="M1559.62 -63.18L1559.62 -63.18" stroke="hsl(228.5, 77.2%, 51.5%)" stroke-width="1.5"></path><path d="M1559.62 -63.18L1568.83 75.76" stroke="hsl(228.5, 77.2%, 51.5%)" stroke-width="1.5"></path><path d="M1559.62 -63.18L1430.85 212.62" stroke="hsl(228.5, 77.2%, 51.5%)" stroke-width="1.5"></path><path d="M1559.62 -63.18L1595.76 250.2" stroke="hsl(228.5, 77.2%, 51.5%)" stroke-width="1.5"></path><path d="M1559.62 -63.18L1246.25 221.78" stroke="hsl(228.5, 77.2%, 51.5%)" stroke-width="1.5"></path><path d="M1568.83 75.76L1568.83 75.76" stroke="hsl(228.5, 77.2%, 51.5%)" stroke-width="1.5"></path><path d="M1568.83 75.76L1595.76 250.2" stroke="hsl(228.5, 77.2%, 51.5%)" stroke-width="1.5"></path><path d="M1595.76 250.2L1595.76 250.2" stroke="hsl(228.5, 77.2%, 51.5%)" stroke-width="1.5"></path><path d="M1595.76 250.2L1594.33 379.13" stroke="hsl(228.5, 77.2%, 51.5%)" stroke-width="1.5"></path><path d="M1595.76 250.2L1406.43 392.54" stroke="hsl(228.5, 77.2%, 51.5%)" stroke-width="1.5"></path><path d="M1594.33 379.13L1594.33 379.13" stroke="hsl(228.5, 77.2%, 51.5%)" stroke-width="1.5"></path><path d="M1594.33 379.13L1567.01 524.76" stroke="hsl(228.5, 77.2%, 51.5%)" stroke-width="1.5"></path><path d="M1567.01 524.76L1567.01 524.76" stroke="hsl(228.5, 77.2%, 51.5%)" stroke-width="1.5"></path><path d="M1567.01 524.76L1568.58 684.44" stroke="hsl(228.5, 77.2%, 51.5%)" stroke-width="1.5"></path><path d="M1568.58 684.44L1568.58 684.44" stroke="hsl(228.5, 77.2%, 51.5%)" stroke-width="1.5"></path><path d="M1568.58 684.44L1294.79 697.33" stroke="hsl(228.5, 77.2%, 51.5%)" stroke-width="1.5"></path><path d="M1568.58 684.44L1594.33 379.13" stroke="hsl(228.5, 77.2%, 51.5%)" stroke-width="1.5"></path><circle r="25" cx="100.82" cy="667.8" fill="url(&quot;#SvgjsRadialGradient1916&quot;)"></circle><circle r="25" cx="231.61" cy="532.19" fill="url(&quot;#SvgjsRadialGradient1916&quot;)"></circle><circle r="25" cx="216.4" cy="671.7" fill="url(&quot;#SvgjsRadialGradient1916&quot;)"></circle><circle r="25" cx="527.05" cy="495.99" fill="url(&quot;#SvgjsRadialGradient1916&quot;)"></circle><circle r="25" cx="802.04" cy="373.45" fill="url(&quot;#SvgjsRadialGradient1916&quot;)"></circle><circle r="25" cx="985.46" cy="706.94" fill="url(&quot;#SvgjsRadialGradient1916&quot;)"></circle><circle r="25" cx="1133.06" cy="108.14" fill="url(&quot;#SvgjsRadialGradient1916&quot;)"></circle><circle r="25" cx="1128.26" cy="505.84" fill="url(&quot;#SvgjsRadialGradient1916&quot;)"></circle><circle r="25" cx="1294.79" cy="697.33" fill="url(&quot;#SvgjsRadialGradient1916&quot;)"></circle><circle r="5" cx="-47.73" cy="540.95" fill="#8b9ad9"></circle><circle r="5" cx="-51.02" cy="698.48" fill="#8b9ad9"></circle><circle r="5" cx="106.83" cy="549.19" fill="#8b9ad9"></circle><circle r="5" cx="354.74" cy="531.96" fill="#8b9ad9"></circle><circle r="5" cx="380.87" cy="688.23" fill="#8b9ad9"></circle><circle r="5" cx="519.34" cy="652" fill="#8b9ad9"></circle><circle r="5" cx="651.78" cy="658.63" fill="#8b9ad9"></circle><circle r="5" cx="808.04" cy="507.66" fill="#8b9ad9"></circle><circle r="5" cx="842.45" cy="676.98" fill="#8b9ad9"></circle><circle r="5" cx="969.51" cy="260.3" fill="#8b9ad9"></circle><circle r="5" cx="940.59" cy="342.05" fill="#8b9ad9"></circle><circle r="5" cx="951.84" cy="545.19" fill="#8b9ad9"></circle><circle r="5" cx="1101.81" cy="249.04" fill="#8b9ad9"></circle><circle r="5" cx="1101.65" cy="365.77" fill="#8b9ad9"></circle><circle r="5" cx="1246.25" cy="221.78" fill="#8b9ad9"></circle><circle r="5" cx="1254.3" cy="350.76" fill="#8b9ad9"></circle><circle r="5" cx="1309.05" cy="505.34" fill="#8b9ad9"></circle><circle r="5" cx="1388.63" cy="-84.23" fill="#8b9ad9"></circle><circle r="5" cx="1417.76" cy="39.91" fill="#8b9ad9"></circle><circle r="5" cx="1430.85" cy="212.62" fill="#8b9ad9"></circle><circle r="5" cx="1406.43" cy="392.54" fill="#8b9ad9"></circle><circle r="5" cx="1559.62" cy="-63.18" fill="#8b9ad9"></circle><circle r="5" cx="1568.83" cy="75.76" fill="#8b9ad9"></circle><circle r="5" cx="1595.76" cy="250.2" fill="#8b9ad9"></circle><circle r="5" cx="1594.33" cy="379.13" fill="#8b9ad9"></circle><circle r="5" cx="1567.01" cy="524.76" fill="#8b9ad9"></circle><circle r="5" cx="1568.58" cy="684.44" fill="#8b9ad9"></circle></g><defs><mask id="SvgjsMask1914"><rect width="1440" height="560" fill="#ffffff"></rect></mask><linearGradient x1="15.28%" y1="-39.29%" x2="84.72%" y2="139.29%" gradientUnits="userSpaceOnUse" id="SvgjsLinearGradient1915"><stop stop-color="#0e2a47" offset="0"></stop><stop stop-color="rgba(0, 0, 0, 1)" offset="1"></stop></linearGradient><radialGradient id="SvgjsRadialGradient1916"><stop stop-color="#ffffff" offset="0.1"></stop><stop stop-color="#1735b3" offset="0.2"></stop><stop stop-color="rgba(23, 53, 179, 0)" offset="1"></stop></radialGradient></defs></svg>