<svg xmlns="http://www.w3.org/2000/svg" version="1.1" xmlns:xlink="http://www.w3.org/1999/xlink" xmlns:svgjs="http://svgjs.dev/svgjs" width="1440" height="560" preserveAspectRatio="none" viewBox="0 0 1440 560"><g mask="url(&quot;#SvgjsMask1000&quot;)" fill="none"><rect width="1440" height="560" x="0" y="0" fill="#0e2a47"></rect><path d="M491.06 247.74L491.06 251.46L525.26 251.46L525.26 247.74zM518.66 249.6 a6.6 6.6 0 1 0 13.2 0 a6.6 6.6 0 1 0 -13.2 0zM486.36 275.11L484.93 278.56L517.07 291.87L518.49 288.42zM511.18 290.14 a6.6 6.6 0 1 0 13.2 0 a6.6 6.6 0 1 0 -13.2 0zM471.54 298.61L468.9 301.24L489.82 322.16L492.45 319.52zM484.54 320.84 a6.6 6.6 0 1 0 13.2 0 a6.6 6.6 0 1 0 -13.2 0zM448.85 314.64L445.41 316.06L451.08 329.77L454.53 328.34zM446.21 329.05 a6.6 6.6 0 1 0 13.2 0 a6.6 6.6 0 1 0 -13.2 0zM421.76 320.77L418.03 320.77L418.03 353.62L421.76 353.62zM413.29 353.62 a6.6 6.6 0 1 0 13.2 0 a6.6 6.6 0 1 0 -13.2 0zM394.38 316.06L390.94 314.64L383.03 333.72L386.48 335.15zM378.15 334.44 a6.6 6.6 0 1 0 13.2 0 a6.6 6.6 0 1 0 -13.2 0zM370.89 301.24L368.25 298.61L350 316.86L352.64 319.49zM344.72 318.17 a6.6 6.6 0 1 0 13.2 0 a6.6 6.6 0 1 0 -13.2 0zM354.86 278.56L353.43 275.11L338.63 281.24L340.06 284.69zM332.74 282.96 a6.6 6.6 0 1 0 13.2 0 a6.6 6.6 0 1 0 -13.2 0zM348.73 251.46L348.73 247.74L319.77 247.74L319.77 251.46zM313.17 249.6 a6.6 6.6 0 1 0 13.2 0 a6.6 6.6 0 1 0 -13.2 0zM353.43 224.09L354.86 220.64L332.87 211.53L331.44 214.98zM325.55 213.26 a6.6 6.6 0 1 0 13.2 0 a6.6 6.6 0 1 0 -13.2 0zM368.25 200.59L370.89 197.96L357.71 184.78L355.07 187.41zM349.79 186.09 a6.6 6.6 0 1 0 13.2 0 a6.6 6.6 0 1 0 -13.2 0zM390.94 184.56L394.38 183.13L384.83 160.08L381.39 161.51zM376.51 160.8 a6.6 6.6 0 1 0 13.2 0 a6.6 6.6 0 1 0 -13.2 0zM418.03 178.43L421.76 178.43L421.76 147.22L418.03 147.22zM413.29 147.22 a6.6 6.6 0 1 0 13.2 0 a6.6 6.6 0 1 0 -13.2 0zM445.41 183.13L448.85 184.56L462.02 152.77L458.58 151.34zM453.7 152.06 a6.6 6.6 0 1 0 13.2 0 a6.6 6.6 0 1 0 -13.2 0zM468.9 197.96L471.54 200.59L491.55 180.58L488.91 177.95zM483.63 179.26 a6.6 6.6 0 1 0 13.2 0 a6.6 6.6 0 1 0 -13.2 0zM484.93 220.64L486.36 224.09L514.26 212.53L512.83 209.08zM506.95 210.81 a6.6 6.6 0 1 0 13.2 0 a6.6 6.6 0 1 0 -13.2 0zM348.7 249.6 a71.19 71.19 0 1 0 142.38 0 a71.19 71.19 0 1 0 -142.38 0z" fill="#488fdb"></path><path d="M451.29 313.49 A70.1936 70.1936 0 0 1 348.85 244.99M348.85 244.99 A142.3872 142.3872 0 0 0 451.29 313.49" fill="#2672c3" fill-rule="nonzero"></path><path d="M474.47 229.75 a6.41 6.41 0 1 0 12.82 0 a6.41 6.41 0 1 0 -12.82 0zM393.48 313.04 a3.56 3.56 0 1 0 7.12 0 a3.56 3.56 0 1 0 -7.12 0zM360.06 215.59 a12.81 12.81 0 1 0 25.62 0 a12.81 12.81 0 1 0 -25.62 0zM392.73 236.06 a4.98 4.98 0 1 0 9.96 0 a4.98 4.98 0 1 0 -9.96 0zM418.17 278.69 a14.24 14.24 0 1 0 28.48 0 a14.24 14.24 0 1 0 -28.48 0zM382.06 275.87 a10.68 10.68 0 1 0 21.36 0 a10.68 10.68 0 1 0 -21.36 0zM460.78 275.2 a2.85 2.85 0 1 0 5.7 0 a2.85 2.85 0 1 0 -5.7 0zM410.83 219.04 a4.98 4.98 0 1 0 9.96 0 a4.98 4.98 0 1 0 -9.96 0zM428.81 236.7 a8.54 8.54 0 1 0 17.08 0 a8.54 8.54 0 1 0 -17.08 0zM361.49 263.67 a4.27 4.27 0 1 0 8.54 0 a4.27 4.27 0 1 0 -8.54 0z" fill="#2672c3" fill-rule="nonzero"></path><path d="M756.37 289.86L756.37 292.66L777.21 292.66L777.21 289.86zM772.26 291.26 a4.95 4.95 0 1 0 9.9 0 a4.95 4.95 0 1 0 -9.9 0zM752.84 310.39L751.77 312.98L764.49 318.24L765.56 315.66zM760.08 316.95 a4.95 4.95 0 1 0 9.9 0 a4.95 4.95 0 1 0 -9.9 0zM741.72 328.01L739.75 329.99L747.65 337.89L749.63 335.92zM743.69 336.91 a4.95 4.95 0 1 0 9.9 0 a4.95 4.95 0 1 0 -9.9 0zM724.71 340.04L722.13 341.11L730.37 361.02L732.96 359.95zM726.71 360.48 a4.95 4.95 0 1 0 9.9 0 a4.95 4.95 0 1 0 -9.9 0zM704.39 344.63L701.59 344.63L701.59 368.6L704.39 368.6zM698.04 368.6 a4.95 4.95 0 1 0 9.9 0 a4.95 4.95 0 1 0 -9.9 0zM683.86 341.11L681.27 340.04L671.83 362.84L674.41 363.91zM668.17 363.37 a4.95 4.95 0 1 0 9.9 0 a4.95 4.95 0 1 0 -9.9 0zM666.24 329.99L664.26 328.01L654.23 338.05L656.2 340.02zM650.26 339.03 a4.95 4.95 0 1 0 9.9 0 a4.95 4.95 0 1 0 -9.9 0zM654.21 312.98L653.14 310.39L638.49 316.46L639.56 319.04zM634.07 317.75 a4.95 4.95 0 1 0 9.9 0 a4.95 4.95 0 1 0 -9.9 0zM649.61 292.66L649.61 289.86L642.01 289.86L642.01 292.66zM637.06 291.26 a4.95 4.95 0 1 0 9.9 0 a4.95 4.95 0 1 0 -9.9 0zM653.14 272.12L654.21 269.54L638.59 263.07L637.52 265.65zM633.1 264.36 a4.95 4.95 0 1 0 9.9 0 a4.95 4.95 0 1 0 -9.9 0zM664.26 254.5L666.24 252.53L651.73 238.02L649.75 239.99zM645.79 239 a4.95 4.95 0 1 0 9.9 0 a4.95 4.95 0 1 0 -9.9 0zM681.27 242.48L683.86 241.41L676.5 223.65L673.92 224.72zM670.26 224.19 a4.95 4.95 0 1 0 9.9 0 a4.95 4.95 0 1 0 -9.9 0zM701.59 237.88L704.39 237.88L704.39 227.04L701.59 227.04zM698.04 227.04 a4.95 4.95 0 1 0 9.9 0 a4.95 4.95 0 1 0 -9.9 0zM722.13 241.41L724.71 242.48L734.11 219.79L731.52 218.72zM727.87 219.25 a4.95 4.95 0 1 0 9.9 0 a4.95 4.95 0 1 0 -9.9 0zM739.75 252.53L741.72 254.5L749.1 247.13L747.12 245.15zM743.16 246.14 a4.95 4.95 0 1 0 9.9 0 a4.95 4.95 0 1 0 -9.9 0zM751.77 269.54L752.84 272.12L761.33 268.61L760.26 266.02zM755.84 267.31 a4.95 4.95 0 1 0 9.9 0 a4.95 4.95 0 1 0 -9.9 0zM649.59 291.26 a53.4 53.4 0 1 0 106.8 0 a53.4 53.4 0 1 0 -106.8 0z" fill="#488fdb"></path><path d="M659.89 259.74 A52.3952 52.3952 0 0 1 751.79 269.59M751.79 269.59 A106.7904 106.7904 0 0 0 659.89 259.74" fill="#2672c3" fill-rule="nonzero"></path><path d="M720.32 334.27 a4.81 4.81 0 1 0 9.62 0 a4.81 4.81 0 1 0 -9.62 0zM658.94 278.64 a10.68 10.68 0 1 0 21.36 0 a10.68 10.68 0 1 0 -21.36 0zM725.48 311.01 a9.08 9.08 0 1 0 18.16 0 a9.08 9.08 0 1 0 -18.16 0zM690.87 329.34 a9.61 9.61 0 1 0 19.22 0 a9.61 9.61 0 1 0 -19.22 0zM711.64 282.5 a10.68 10.68 0 1 0 21.36 0 a10.68 10.68 0 1 0 -21.36 0zM687.63 242.19 a2.67 2.67 0 1 0 5.34 0 a2.67 2.67 0 1 0 -5.34 0zM697.4 257.42 a7.48 7.48 0 1 0 14.96 0 a7.48 7.48 0 1 0 -14.96 0zM745.39 274.3 a3.74 3.74 0 1 0 7.48 0 a3.74 3.74 0 1 0 -7.48 0zM666.87 303.9 a3.74 3.74 0 1 0 7.48 0 a3.74 3.74 0 1 0 -7.48 0zM691.17 279.37 a4.27 4.27 0 1 0 8.54 0 a4.27 4.27 0 1 0 -8.54 0z" fill="#2672c3" fill-rule="nonzero"></path><path d="M1235.9 238.91L1235.9 242.64L1263.56 242.64L1263.56 238.91zM1256.96 240.78 a6.6 6.6 0 1 0 13.2 0 a6.6 6.6 0 1 0 -13.2 0zM1231.2 266.29L1229.77 269.74L1257.97 281.42L1259.4 277.97zM1252.08 279.69 a6.6 6.6 0 1 0 13.2 0 a6.6 6.6 0 1 0 -13.2 0zM1216.38 289.79L1213.74 292.42L1235.89 314.57L1238.52 311.93zM1230.6 313.25 a6.6 6.6 0 1 0 13.2 0 a6.6 6.6 0 1 0 -13.2 0zM1193.69 305.82L1190.25 307.24L1195.33 319.5L1198.77 318.08zM1190.45 318.79 a6.6 6.6 0 1 0 13.2 0 a6.6 6.6 0 1 0 -13.2 0zM1166.6 311.95L1162.87 311.95L1162.87 321.93L1166.6 321.93zM1158.13 321.93 a6.6 6.6 0 1 0 13.2 0 a6.6 6.6 0 1 0 -13.2 0zM1139.22 307.24L1135.78 305.82L1129.29 321.49L1132.73 322.91zM1124.41 322.2 a6.6 6.6 0 1 0 13.2 0 a6.6 6.6 0 1 0 -13.2 0zM1115.73 292.42L1113.09 289.79L1101.4 301.48L1104.03 304.12zM1096.11 302.8 a6.6 6.6 0 1 0 13.2 0 a6.6 6.6 0 1 0 -13.2 0zM1099.7 269.74L1098.27 266.29L1089.84 269.78L1091.27 273.23zM1083.96 271.5 a6.6 6.6 0 1 0 13.2 0 a6.6 6.6 0 1 0 -13.2 0zM1093.56 242.64L1093.56 238.91L1060.27 238.91L1060.27 242.64zM1053.67 240.78 a6.6 6.6 0 1 0 13.2 0 a6.6 6.6 0 1 0 -13.2 0zM1098.27 215.27L1099.7 211.82L1067.39 198.44L1065.96 201.88zM1060.07 200.16 a6.6 6.6 0 1 0 13.2 0 a6.6 6.6 0 1 0 -13.2 0zM1113.09 191.77L1115.73 189.14L1097.06 170.47L1094.42 173.1zM1089.14 171.79 a6.6 6.6 0 1 0 13.2 0 a6.6 6.6 0 1 0 -13.2 0zM1135.78 175.74L1139.22 174.31L1134.46 162.83L1131.02 164.26zM1126.14 163.54 a6.6 6.6 0 1 0 13.2 0 a6.6 6.6 0 1 0 -13.2 0zM1162.87 169.61L1166.6 169.61L1166.6 140.42L1162.87 140.42zM1158.13 140.42 a6.6 6.6 0 1 0 13.2 0 a6.6 6.6 0 1 0 -13.2 0zM1190.25 174.31L1193.69 175.74L1200.02 160.47L1196.57 159.04zM1191.7 159.76 a6.6 6.6 0 1 0 13.2 0 a6.6 6.6 0 1 0 -13.2 0zM1213.74 189.14L1216.38 191.77L1238.03 170.11L1235.4 167.48zM1230.12 168.8 a6.6 6.6 0 1 0 13.2 0 a6.6 6.6 0 1 0 -13.2 0zM1229.77 211.82L1231.2 215.27L1259.15 203.69L1257.72 200.25zM1251.83 201.97 a6.6 6.6 0 1 0 13.2 0 a6.6 6.6 0 1 0 -13.2 0zM1093.54 240.78 a71.19 71.19 0 1 0 142.38 0 a71.19 71.19 0 1 0 -142.38 0z" fill="#488fdb"></path><path d="M1174.58 311.29 A70.1936 70.1936 0 0 1 1098.69 214.19M1098.69 214.19 A142.3872 142.3872 0 0 0 1174.58 311.29" fill="#2672c3" fill-rule="nonzero"></path><path d="M1156.96 293.46 a14.24 14.24 0 1 0 28.48 0 a14.24 14.24 0 1 0 -28.48 0zM1117.87 229.91 a14.24 14.24 0 1 0 28.48 0 a14.24 14.24 0 1 0 -28.48 0zM1095.3 253.76 a7.83 7.83 0 1 0 15.66 0 a7.83 7.83 0 1 0 -15.66 0zM1215.23 278.23 a4.27 4.27 0 1 0 8.54 0 a4.27 4.27 0 1 0 -8.54 0zM1181.41 208.97 a14.24 14.24 0 1 0 28.48 0 a14.24 14.24 0 1 0 -28.48 0zM1186.68 258.4 a10.68 10.68 0 1 0 21.36 0 a10.68 10.68 0 1 0 -21.36 0zM1111.27 195.46 a3.56 3.56 0 1 0 7.12 0 a3.56 3.56 0 1 0 -7.12 0zM1158.9 182.83 a9.26 9.26 0 1 0 18.52 0 a9.26 9.26 0 1 0 -18.52 0zM1132.44 198.25 a2.85 2.85 0 1 0 5.7 0 a2.85 2.85 0 1 0 -5.7 0zM1159.05 208.96 a2.85 2.85 0 1 0 5.7 0 a2.85 2.85 0 1 0 -5.7 0z" fill="#2672c3" fill-rule="nonzero"></path><path d="M209.99 133.08L209.99 135.87L218.91 135.87L218.91 133.08zM213.96 134.48 a4.95 4.95 0 1 0 9.9 0 a4.95 4.95 0 1 0 -9.9 0zM206.47 153.61L205.4 156.19L222.9 163.45L223.97 160.86zM218.49 162.15 a4.95 4.95 0 1 0 9.9 0 a4.95 4.95 0 1 0 -9.9 0zM195.35 171.23L193.37 173.21L210.64 190.47L212.62 188.5zM206.68 189.49 a4.95 4.95 0 1 0 9.9 0 a4.95 4.95 0 1 0 -9.9 0zM178.33 183.25L175.75 184.32L181.91 199.18L184.49 198.11zM178.25 198.65 a4.95 4.95 0 1 0 9.9 0 a4.95 4.95 0 1 0 -9.9 0zM158.01 187.85L155.22 187.85L155.22 213.73L158.01 213.73zM151.67 213.73 a4.95 4.95 0 1 0 9.9 0 a4.95 4.95 0 1 0 -9.9 0zM137.48 184.32L134.9 183.25L131.3 191.95L133.88 193.02zM127.64 192.48 a4.95 4.95 0 1 0 9.9 0 a4.95 4.95 0 1 0 -9.9 0zM119.86 173.21L117.89 171.23L111.1 178.02L113.07 180zM107.14 179.01 a4.95 4.95 0 1 0 9.9 0 a4.95 4.95 0 1 0 -9.9 0zM107.84 156.19L106.77 153.61L93.85 158.96L94.92 161.54zM89.44 160.25 a4.95 4.95 0 1 0 9.9 0 a4.95 4.95 0 1 0 -9.9 0zM103.24 135.87L103.24 133.08L81.02 133.08L81.02 135.87zM76.07 134.48 a4.95 4.95 0 1 0 9.9 0 a4.95 4.95 0 1 0 -9.9 0zM106.77 115.34L107.84 112.76L95.27 107.55L94.2 110.14zM89.79 108.84 a4.95 4.95 0 1 0 9.9 0 a4.95 4.95 0 1 0 -9.9 0zM117.89 97.72L119.86 95.74L104.12 80L102.15 81.98zM98.18 80.99 a4.95 4.95 0 1 0 9.9 0 a4.95 4.95 0 1 0 -9.9 0zM134.9 85.7L137.48 84.63L131.14 69.33L128.56 70.4zM124.9 69.86 a4.95 4.95 0 1 0 9.9 0 a4.95 4.95 0 1 0 -9.9 0zM155.22 81.1L158.01 81.1L158.01 62.44L155.22 62.44zM151.67 62.44 a4.95 4.95 0 1 0 9.9 0 a4.95 4.95 0 1 0 -9.9 0zM175.75 84.63L178.33 85.7L183.31 73.7L180.72 72.63zM177.06 73.16 a4.95 4.95 0 1 0 9.9 0 a4.95 4.95 0 1 0 -9.9 0zM193.37 95.74L195.35 97.72L213.71 79.36L211.74 77.38zM207.77 78.37 a4.95 4.95 0 1 0 9.9 0 a4.95 4.95 0 1 0 -9.9 0zM205.4 112.76L206.47 115.34L224.58 107.84L223.51 105.25zM219.1 106.55 a4.95 4.95 0 1 0 9.9 0 a4.95 4.95 0 1 0 -9.9 0zM103.22 134.48 a53.4 53.4 0 1 0 106.8 0 a53.4 53.4 0 1 0 -106.8 0z" fill="#488fdb"></path><path d="M105.94 117.66 A52.3952 52.3952 0 0 1 196.45 98.91M196.45 98.91 A106.7904 106.7904 0 0 0 105.94 117.66" fill="#2672c3" fill-rule="nonzero"></path><path d="M149.88 129.19 a10.68 10.68 0 1 0 21.36 0 a10.68 10.68 0 1 0 -21.36 0zM155.7 177.03 a9.61 9.61 0 1 0 19.22 0 a9.61 9.61 0 1 0 -19.22 0zM136.11 170.08 a4.81 4.81 0 1 0 9.62 0 a4.81 4.81 0 1 0 -9.62 0zM104.07 140.99 a3.74 3.74 0 1 0 7.48 0 a3.74 3.74 0 1 0 -7.48 0zM129.32 97.03 a10.68 10.68 0 1 0 21.36 0 a10.68 10.68 0 1 0 -21.36 0zM174.69 90.05 a3.74 3.74 0 1 0 7.48 0 a3.74 3.74 0 1 0 -7.48 0zM112.3 163.46 a2.14 2.14 0 1 0 4.28 0 a2.14 2.14 0 1 0 -4.28 0zM115.39 124.82 a8.01 8.01 0 1 0 16.02 0 a8.01 8.01 0 1 0 -16.02 0zM204.52 132.89 a2.67 2.67 0 1 0 5.34 0 a2.67 2.67 0 1 0 -5.34 0zM201.18 155.48 a2.14 2.14 0 1 0 4.28 0 a2.14 2.14 0 1 0 -4.28 0z" fill="#2672c3" fill-rule="nonzero"></path><path d="M938.86 160.69L938.86 163.02L959.14 163.02L959.14 160.69zM955.01 161.85 a4.13 4.13 0 1 0 8.26 0 a4.13 4.13 0 1 0 -8.26 0zM935.92 177.8L935.02 179.95L944.84 184.02L945.73 181.86zM941.15 182.94 a4.13 4.13 0 1 0 8.26 0 a4.13 4.13 0 1 0 -8.26 0zM926.65 192.48L925 194.13L932.94 202.07L934.59 200.42zM929.64 201.25 a4.13 4.13 0 1 0 8.26 0 a4.13 4.13 0 1 0 -8.26 0zM912.47 202.5L910.32 203.39L917.37 220.42L919.53 219.53zM914.32 219.98 a4.13 4.13 0 1 0 8.26 0 a4.13 4.13 0 1 0 -8.26 0zM895.54 206.33L893.21 206.33L893.21 212.69L895.54 212.69zM890.24 212.69 a4.13 4.13 0 1 0 8.26 0 a4.13 4.13 0 1 0 -8.26 0zM878.43 203.39L876.28 202.5L870.15 217.29L872.3 218.19zM867.1 217.74 a4.13 4.13 0 1 0 8.26 0 a4.13 4.13 0 1 0 -8.26 0zM863.75 194.13L862.1 192.48L852.18 202.4L853.83 204.04zM848.88 203.22 a4.13 4.13 0 1 0 8.26 0 a4.13 4.13 0 1 0 -8.26 0zM853.73 179.95L852.83 177.8L843.77 181.55L844.66 183.71zM840.09 182.63 a4.13 4.13 0 1 0 8.26 0 a4.13 4.13 0 1 0 -8.26 0zM849.89 163.02L849.89 160.69L838.01 160.69L838.01 163.02zM833.88 161.85 a4.13 4.13 0 1 0 8.26 0 a4.13 4.13 0 1 0 -8.26 0zM852.83 145.91L853.73 143.76L833.85 135.52L832.96 137.68zM829.28 136.6 a4.13 4.13 0 1 0 8.26 0 a4.13 4.13 0 1 0 -8.26 0zM862.1 131.22L863.75 129.58L849.54 115.37L847.89 117.02zM844.59 116.2 a4.13 4.13 0 1 0 8.26 0 a4.13 4.13 0 1 0 -8.26 0zM876.28 121.2L878.43 120.31L874.25 110.22L872.1 111.12zM869.04 110.67 a4.13 4.13 0 1 0 8.26 0 a4.13 4.13 0 1 0 -8.26 0zM893.21 117.37L895.54 117.37L895.54 95.38L893.21 95.38zM890.24 95.38 a4.13 4.13 0 1 0 8.26 0 a4.13 4.13 0 1 0 -8.26 0zM910.32 120.31L912.47 121.2L916.23 112.14L914.07 111.25zM911.02 111.7 a4.13 4.13 0 1 0 8.26 0 a4.13 4.13 0 1 0 -8.26 0zM925 129.58L926.65 131.22L936.95 120.92L935.31 119.27zM932 120.1 a4.13 4.13 0 1 0 8.26 0 a4.13 4.13 0 1 0 -8.26 0zM935.02 143.76L935.92 145.91L946.28 141.61L945.39 139.46zM941.71 140.54 a4.13 4.13 0 1 0 8.26 0 a4.13 4.13 0 1 0 -8.26 0zM849.87 161.85 a44.5 44.5 0 1 0 89 0 a44.5 44.5 0 1 0 -89 0z" fill="#488fdb"></path><path d="M918.89 198.98 A43.496 43.496 0 0 1 849.96 164.62M849.96 164.62 A88.992 88.992 0 0 0 918.89 198.98" fill="#2672c3" fill-rule="nonzero"></path><path d="M897.5 140.85 a8.9 8.9 0 1 0 17.8 0 a8.9 8.9 0 1 0 -17.8 0zM851.52 151.58 a5.78 5.78 0 1 0 11.56 0 a5.78 5.78 0 1 0 -11.56 0zM908.24 188.36 a8.9 8.9 0 1 0 17.8 0 a8.9 8.9 0 1 0 -17.8 0zM870.39 159.41 a4.89 4.89 0 1 0 9.78 0 a4.89 4.89 0 1 0 -9.78 0zM871.03 186 a8.9 8.9 0 1 0 17.8 0 a8.9 8.9 0 1 0 -17.8 0zM914.83 162.42 a8.9 8.9 0 1 0 17.8 0 a8.9 8.9 0 1 0 -17.8 0zM884.69 122.39 a4.45 4.45 0 1 0 8.9 0 a4.45 4.45 0 1 0 -8.9 0zM857.77 174.77 a3.56 3.56 0 1 0 7.12 0 a3.56 3.56 0 1 0 -7.12 0zM897.7 163.18 a4 4 0 1 0 8 0 a4 4 0 1 0 -8 0zM931.05 143.36 a1.78 1.78 0 1 0 3.56 0 a1.78 1.78 0 1 0 -3.56 0z" fill="#2672c3" fill-rule="nonzero"></path><path d="M1336.56 449.92L1336.56 451.78L1351.8 451.78L1351.8 449.92zM1348.5 450.85 a3.3 3.3 0 1 0 6.6 0 a3.3 3.3 0 1 0 -6.6 0zM1334.21 463.61L1333.49 465.33L1344.16 469.75L1344.88 468.03zM1341.22 468.89 a3.3 3.3 0 1 0 6.6 0 a3.3 3.3 0 1 0 -6.6 0zM1326.79 475.36L1325.48 476.67L1335.62 486.82L1336.94 485.5zM1332.98 486.16 a3.3 3.3 0 1 0 6.6 0 a3.3 3.3 0 1 0 -6.6 0zM1315.45 483.37L1313.73 484.09L1316.65 491.13L1318.37 490.41zM1314.21 490.77 a3.3 3.3 0 1 0 6.6 0 a3.3 3.3 0 1 0 -6.6 0zM1301.9 486.44L1300.04 486.44L1300.04 502.76L1301.9 502.76zM1297.67 502.76 a3.3 3.3 0 1 0 6.6 0 a3.3 3.3 0 1 0 -6.6 0zM1288.22 484.09L1286.49 483.37L1282.82 492.24L1284.54 492.95zM1280.38 492.6 a3.3 3.3 0 1 0 6.6 0 a3.3 3.3 0 1 0 -6.6 0zM1276.47 476.67L1275.15 475.36L1266.11 484.39L1267.43 485.71zM1263.47 485.05 a3.3 3.3 0 1 0 6.6 0 a3.3 3.3 0 1 0 -6.6 0zM1268.45 465.33L1267.74 463.61L1259.44 467.05L1260.16 468.77zM1256.5 467.91 a3.3 3.3 0 1 0 6.6 0 a3.3 3.3 0 1 0 -6.6 0zM1265.39 451.78L1265.39 449.92L1253.24 449.92L1253.24 451.78zM1249.94 450.85 a3.3 3.3 0 1 0 6.6 0 a3.3 3.3 0 1 0 -6.6 0zM1267.74 438.1L1268.45 436.37L1261.48 433.49L1260.77 435.21zM1257.82 434.35 a3.3 3.3 0 1 0 6.6 0 a3.3 3.3 0 1 0 -6.6 0zM1275.15 426.35L1276.47 425.03L1272.67 421.23L1271.35 422.55zM1268.71 421.89 a3.3 3.3 0 1 0 6.6 0 a3.3 3.3 0 1 0 -6.6 0zM1286.49 418.33L1288.22 417.62L1286.22 412.8L1284.5 413.51zM1282.06 413.15 a3.3 3.3 0 1 0 6.6 0 a3.3 3.3 0 1 0 -6.6 0zM1300.04 415.27L1301.9 415.27L1301.9 408.4L1300.04 408.4zM1297.67 408.4 a3.3 3.3 0 1 0 6.6 0 a3.3 3.3 0 1 0 -6.6 0zM1313.73 417.62L1315.45 418.33L1320.04 407.26L1318.32 406.54zM1315.88 406.9 a3.3 3.3 0 1 0 6.6 0 a3.3 3.3 0 1 0 -6.6 0zM1325.48 425.03L1326.79 426.35L1334.44 418.7L1333.13 417.38zM1330.49 418.04 a3.3 3.3 0 1 0 6.6 0 a3.3 3.3 0 1 0 -6.6 0zM1333.49 436.37L1334.21 438.1L1349.05 431.95L1348.34 430.22zM1345.4 431.09 a3.3 3.3 0 1 0 6.6 0 a3.3 3.3 0 1 0 -6.6 0zM1265.37 450.85 a35.6 35.6 0 1 0 71.2 0 a35.6 35.6 0 1 0 -71.2 0z" fill="#488fdb"></path><path d="M1331.61 468.98 A34.5968 34.5968 0 0 1 1269.99 468.38M1269.99 468.38 A71.1936 71.1936 0 0 0 1331.61 468.98" fill="#2672c3" fill-rule="nonzero"></path><path d="M1284.35 421.25 a2.85 2.85 0 1 0 5.7 0 a2.85 2.85 0 1 0 -5.7 0zM1309.68 442.75 a7.12 7.12 0 1 0 14.24 0 a7.12 7.12 0 1 0 -14.24 0zM1271.38 431.93 a2.49 2.49 0 1 0 4.98 0 a2.49 2.49 0 1 0 -4.98 0zM1289.55 482.91 a1.78 1.78 0 1 0 3.56 0 a1.78 1.78 0 1 0 -3.56 0zM1318.5 424.7 a2.49 2.49 0 1 0 4.98 0 a2.49 2.49 0 1 0 -4.98 0zM1317.61 463.4 a7.12 7.12 0 1 0 14.24 0 a7.12 7.12 0 1 0 -14.24 0zM1300.06 480.14 a2.49 2.49 0 1 0 4.98 0 a2.49 2.49 0 1 0 -4.98 0zM1284.23 453.19 a7.12 7.12 0 1 0 14.24 0 a7.12 7.12 0 1 0 -14.24 0zM1282.39 437.24 a1.42 1.42 0 1 0 2.84 0 a1.42 1.42 0 1 0 -2.84 0zM1273.32 472.44 a1.78 1.78 0 1 0 3.56 0 a1.78 1.78 0 1 0 -3.56 0z" fill="#2672c3" fill-rule="nonzero"></path><path d="M1001.36 434.61L1001.36 437.87L1009.35 437.87L1009.35 434.61zM1003.57 436.24 a5.78 5.78 0 1 0 11.56 0 a5.78 5.78 0 1 0 -11.56 0zM997.25 458.56L996 461.57L1013.75 468.93L1015 465.91zM1008.59 467.42 a5.78 5.78 0 1 0 11.56 0 a5.78 5.78 0 1 0 -11.56 0zM984.28 479.12L981.97 481.42L988.17 487.63L990.48 485.32zM983.55 486.47 a5.78 5.78 0 1 0 11.56 0 a5.78 5.78 0 1 0 -11.56 0zM964.43 493.15L961.42 494.39L968.16 510.67L971.17 509.42zM963.89 510.05 a5.78 5.78 0 1 0 11.56 0 a5.78 5.78 0 1 0 -11.56 0zM940.72 498.51L937.46 498.51L937.46 518.63L940.72 518.63zM933.31 518.63 a5.78 5.78 0 1 0 11.56 0 a5.78 5.78 0 1 0 -11.56 0zM916.77 494.39L913.75 493.15L908.01 507.02L911.02 508.27zM903.73 507.65 a5.78 5.78 0 1 0 11.56 0 a5.78 5.78 0 1 0 -11.56 0zM896.21 481.42L893.9 479.12L873.14 499.89L875.44 502.19zM868.51 501.04 a5.78 5.78 0 1 0 11.56 0 a5.78 5.78 0 1 0 -11.56 0zM882.18 461.57L880.93 458.56L860.59 466.99L861.84 470zM855.43 468.49 a5.78 5.78 0 1 0 11.56 0 a5.78 5.78 0 1 0 -11.56 0zM876.82 437.87L876.82 434.61L868.67 434.61L868.67 437.87zM862.89 436.24 a5.78 5.78 0 1 0 11.56 0 a5.78 5.78 0 1 0 -11.56 0zM880.93 413.91L882.18 410.9L873.68 407.38L872.43 410.39zM867.28 408.89 a5.78 5.78 0 1 0 11.56 0 a5.78 5.78 0 1 0 -11.56 0zM893.9 393.36L896.21 391.05L875.17 370.01L872.87 372.32zM868.24 371.17 a5.78 5.78 0 1 0 11.56 0 a5.78 5.78 0 1 0 -11.56 0zM913.75 379.33L916.77 378.08L907.61 355.96L904.59 357.21zM900.32 356.59 a5.78 5.78 0 1 0 11.56 0 a5.78 5.78 0 1 0 -11.56 0zM937.46 373.96L940.72 373.96L940.72 351.59L937.46 351.59zM933.31 351.59 a5.78 5.78 0 1 0 11.56 0 a5.78 5.78 0 1 0 -11.56 0zM961.42 378.08L964.43 379.33L972.63 359.54L969.61 358.29zM965.34 358.91 a5.78 5.78 0 1 0 11.56 0 a5.78 5.78 0 1 0 -11.56 0zM981.97 391.05L984.28 393.36L1002.88 374.76L1000.57 372.45zM995.94 373.61 a5.78 5.78 0 1 0 11.56 0 a5.78 5.78 0 1 0 -11.56 0zM996 410.9L997.25 413.91L1018.86 404.96L1017.61 401.95zM1012.45 403.46 a5.78 5.78 0 1 0 11.56 0 a5.78 5.78 0 1 0 -11.56 0zM876.8 436.24 a62.29 62.29 0 1 0 124.58 0 a62.29 62.29 0 1 0 -124.58 0z" fill="#488fdb"></path><path d="M1001.27 432.42 A61.294399999999996 61.294399999999996 0 0 1 911.42 492.05M911.42 492.05 A124.58879999999999 124.58879999999999 0 0 0 1001.27 432.42" fill="#2672c3" fill-rule="nonzero"></path><path d="M905.88 427.03 a12.46 12.46 0 1 0 24.92 0 a12.46 12.46 0 1 0 -24.92 0zM943.62 424.25 a7.48 7.48 0 1 0 14.96 0 a7.48 7.48 0 1 0 -14.96 0zM921.26 491.62 a4.98 4.98 0 1 0 9.96 0 a4.98 4.98 0 1 0 -9.96 0zM936.28 387.39 a12.46 12.46 0 1 0 24.92 0 a12.46 12.46 0 1 0 -24.92 0zM991.34 416.4 a3.11 3.11 0 1 0 6.22 0 a3.11 3.11 0 1 0 -6.22 0zM933.26 457.18 a12.46 12.46 0 1 0 24.92 0 a12.46 12.46 0 1 0 -24.92 0zM968.88 435.34 a3.74 3.74 0 1 0 7.48 0 a3.74 3.74 0 1 0 -7.48 0zM902.54 451 a2.49 2.49 0 1 0 4.98 0 a2.49 2.49 0 1 0 -4.98 0zM986.93 444.36 a4.98 4.98 0 1 0 9.96 0 a4.98 4.98 0 1 0 -9.96 0zM892 407.6 a4.36 4.36 0 1 0 8.72 0 a4.36 4.36 0 1 0 -8.72 0z" fill="#2672c3" fill-rule="nonzero"></path><path d="M570.58 465.82L570.58 467.69L587.77 467.69L587.77 465.82zM584.47 466.76 a3.3 3.3 0 1 0 6.6 0 a3.3 3.3 0 1 0 -6.6 0zM568.22 479.51L567.51 481.23L583.46 487.84L584.17 486.12zM580.51 486.98 a3.3 3.3 0 1 0 6.6 0 a3.3 3.3 0 1 0 -6.6 0zM560.81 491.26L559.49 492.58L566.55 499.63L567.87 498.32zM563.91 498.97 a3.3 3.3 0 1 0 6.6 0 a3.3 3.3 0 1 0 -6.6 0zM549.47 499.27L547.75 499.99L551.47 508.99L553.2 508.27zM549.04 508.63 a3.3 3.3 0 1 0 6.6 0 a3.3 3.3 0 1 0 -6.6 0zM535.92 502.34L534.06 502.34L534.06 508.57L535.92 508.57zM531.69 508.57 a3.3 3.3 0 1 0 6.6 0 a3.3 3.3 0 1 0 -6.6 0zM522.23 499.99L520.51 499.27L516.06 510.03L517.78 510.74zM513.62 510.39 a3.3 3.3 0 1 0 6.6 0 a3.3 3.3 0 1 0 -6.6 0zM510.49 492.58L509.17 491.26L504.22 496.21L505.54 497.53zM501.58 496.87 a3.3 3.3 0 1 0 6.6 0 a3.3 3.3 0 1 0 -6.6 0zM502.47 481.23L501.76 479.51L496.56 481.67L497.27 483.39zM493.61 482.53 a3.3 3.3 0 1 0 6.6 0 a3.3 3.3 0 1 0 -6.6 0zM499.41 467.69L499.41 465.82L484.24 465.82L484.24 467.69zM480.94 466.76 a3.3 3.3 0 1 0 6.6 0 a3.3 3.3 0 1 0 -6.6 0zM501.76 454L502.47 452.28L491.77 447.85L491.06 449.57zM488.12 448.71 a3.3 3.3 0 1 0 6.6 0 a3.3 3.3 0 1 0 -6.6 0zM509.17 442.25L510.49 440.93L503.93 434.37L502.61 435.69zM499.97 435.03 a3.3 3.3 0 1 0 6.6 0 a3.3 3.3 0 1 0 -6.6 0zM520.51 434.24L522.23 433.52L518.4 424.26L516.67 424.97zM514.23 424.61 a3.3 3.3 0 1 0 6.6 0 a3.3 3.3 0 1 0 -6.6 0zM534.06 431.17L535.92 431.17L535.92 419.97L534.06 419.97zM531.69 419.97 a3.3 3.3 0 1 0 6.6 0 a3.3 3.3 0 1 0 -6.6 0zM547.75 433.52L549.47 434.24L553.47 424.58L551.75 423.87zM549.31 424.23 a3.3 3.3 0 1 0 6.6 0 a3.3 3.3 0 1 0 -6.6 0zM559.49 440.93L560.81 442.25L566.6 436.47L565.28 435.15zM562.64 435.81 a3.3 3.3 0 1 0 6.6 0 a3.3 3.3 0 1 0 -6.6 0zM567.51 452.28L568.22 454L584.1 447.42L583.38 445.7zM580.44 446.56 a3.3 3.3 0 1 0 6.6 0 a3.3 3.3 0 1 0 -6.6 0zM499.39 466.76 a35.6 35.6 0 1 0 71.2 0 a35.6 35.6 0 1 0 -71.2 0z" fill="#488fdb"></path><path d="M519.93 434.5 A34.5968 34.5968 0 0 1 570.46 469.77M570.46 469.77 A71.1936 71.1936 0 0 0 519.93 434.5" fill="#2672c3" fill-rule="nonzero"></path><path d="M544.75 454.17 a7.12 7.12 0 1 0 14.24 0 a7.12 7.12 0 1 0 -14.24 0zM525.17 458.31 a6.41 6.41 0 1 0 12.82 0 a6.41 6.41 0 1 0 -12.82 0zM529.54 439.48 a5.34 5.34 0 1 0 10.68 0 a5.34 5.34 0 1 0 -10.68 0zM517.3 490.19 a7.12 7.12 0 1 0 14.24 0 a7.12 7.12 0 1 0 -14.24 0zM542.11 492.38 a6.41 6.41 0 1 0 12.82 0 a6.41 6.41 0 1 0 -12.82 0zM513 440.4 a2.49 2.49 0 1 0 4.98 0 a2.49 2.49 0 1 0 -4.98 0zM515.09 456.93 a1.42 1.42 0 1 0 2.84 0 a1.42 1.42 0 1 0 -2.84 0zM510.84 475.78 a3.2 3.2 0 1 0 6.4 0 a3.2 3.2 0 1 0 -6.4 0zM566.5 471.8 a1.78 1.78 0 1 0 3.56 0 a1.78 1.78 0 1 0 -3.56 0zM500.97 463.67 a4.27 4.27 0 1 0 8.54 0 a4.27 4.27 0 1 0 -8.54 0z" fill="#2672c3" fill-rule="nonzero"></path><path d="M265.38 418.69L265.38 421.02L278.57 421.02L278.57 418.69zM274.44 419.86 a4.13 4.13 0 1 0 8.26 0 a4.13 4.13 0 1 0 -8.26 0zM262.44 435.8L261.54 437.95L280.96 446L281.86 443.85zM277.28 444.92 a4.13 4.13 0 1 0 8.26 0 a4.13 4.13 0 1 0 -8.26 0zM253.17 450.48L251.52 452.13L262.23 462.84L263.88 461.19zM258.92 462.01 a4.13 4.13 0 1 0 8.26 0 a4.13 4.13 0 1 0 -8.26 0zM238.99 460.5L236.84 461.4L239 466.6L241.15 465.71zM235.94 466.15 a4.13 4.13 0 1 0 8.26 0 a4.13 4.13 0 1 0 -8.26 0zM222.06 464.34L219.73 464.34L219.73 483.15L222.06 483.15zM216.76 483.15 a4.13 4.13 0 1 0 8.26 0 a4.13 4.13 0 1 0 -8.26 0zM204.95 461.4L202.8 460.5L195.45 478.23L197.61 479.13zM192.4 478.68 a4.13 4.13 0 1 0 8.26 0 a4.13 4.13 0 1 0 -8.26 0zM190.27 452.13L188.62 450.48L177.48 461.62L179.13 463.27zM174.18 462.45 a4.13 4.13 0 1 0 8.26 0 a4.13 4.13 0 1 0 -8.26 0zM180.25 437.95L179.35 435.8L165.63 441.48L166.53 443.64zM161.95 442.56 a4.13 4.13 0 1 0 8.26 0 a4.13 4.13 0 1 0 -8.26 0zM176.41 421.02L176.41 418.69L164.32 418.69L164.32 421.02zM160.19 419.86 a4.13 4.13 0 1 0 8.26 0 a4.13 4.13 0 1 0 -8.26 0zM179.35 403.91L180.25 401.76L169.25 397.2L168.36 399.36zM164.68 398.28 a4.13 4.13 0 1 0 8.26 0 a4.13 4.13 0 1 0 -8.26 0zM188.62 389.23L190.27 387.58L185.32 382.63L183.67 384.28zM180.36 383.45 a4.13 4.13 0 1 0 8.26 0 a4.13 4.13 0 1 0 -8.26 0zM202.8 379.21L204.95 378.32L197.62 360.62L195.47 361.51zM192.41 361.07 a4.13 4.13 0 1 0 8.26 0 a4.13 4.13 0 1 0 -8.26 0zM219.73 375.37L222.06 375.37L222.06 360.62L219.73 360.62zM216.76 360.62 a4.13 4.13 0 1 0 8.26 0 a4.13 4.13 0 1 0 -8.26 0zM236.84 378.32L238.99 379.21L246.59 360.88L244.43 359.99zM241.38 360.43 a4.13 4.13 0 1 0 8.26 0 a4.13 4.13 0 1 0 -8.26 0zM251.52 387.58L253.17 389.23L265.33 377.06L263.69 375.42zM260.38 376.24 a4.13 4.13 0 1 0 8.26 0 a4.13 4.13 0 1 0 -8.26 0zM261.54 401.76L262.44 403.91L276.05 398.27L275.16 396.12zM271.48 397.19 a4.13 4.13 0 1 0 8.26 0 a4.13 4.13 0 1 0 -8.26 0zM176.39 419.86 a44.5 44.5 0 1 0 89 0 a44.5 44.5 0 1 0 -89 0z" fill="#488fdb"></path><path d="M245.8 382.98 A43.496 43.496 0 0 1 240.46 459.82M240.46 459.82 A88.992 88.992 0 0 0 245.8 382.98" fill="#2672c3" fill-rule="nonzero"></path><path d="M208.16 425.69 a8.9 8.9 0 1 0 17.8 0 a8.9 8.9 0 1 0 -17.8 0zM248.71 436.6 a6.23 6.23 0 1 0 12.46 0 a6.23 6.23 0 1 0 -12.46 0zM205.9 404.28 a4.45 4.45 0 1 0 8.9 0 a4.45 4.45 0 1 0 -8.9 0zM220.56 392.71 a7.12 7.12 0 1 0 14.24 0 a7.12 7.12 0 1 0 -14.24 0zM179.75 404.26 a4 4 0 1 0 8 0 a4 4 0 1 0 -8 0zM240.29 451.26 a3.11 3.11 0 1 0 6.22 0 a3.11 3.11 0 1 0 -6.22 0zM231.98 439.34 a2.67 2.67 0 1 0 5.34 0 a2.67 2.67 0 1 0 -5.34 0zM260.63 410.06 a1.78 1.78 0 1 0 3.56 0 a1.78 1.78 0 1 0 -3.56 0zM187.61 424.73 a5.78 5.78 0 1 0 11.56 0 a5.78 5.78 0 1 0 -11.56 0zM225.82 451.7 a2.22 2.22 0 1 0 4.44 0 a2.22 2.22 0 1 0 -4.44 0z" fill="#2672c3" fill-rule="nonzero"></path></g><defs><mask id="SvgjsMask1000"><rect width="1440" height="560" fill="#ffffff"></rect></mask></defs></svg>